<mxfile host="drawio-plugin" modified="2022-07-22T13:46:16.288Z" agent="5.0 (Macintosh; Intel Mac OS X 10_15_7) AppleWebKit/537.36 (KHTML, like Gecko) Chrome/97.0.4692.45 Safari/537.36" etag="_XCamYMdQhZPmVfwMNvv" version="15.5.4" type="embed" pages="2"><diagram name="OnlyProsumers" id="mtB-74yeFG_KVlrw7tQs"><mxGraphModel dx="673" dy="633" grid="1" gridSize="10" guides="1" tooltips="1" connect="1" arrows="1" fold="1" page="1" pageScale="1" pageWidth="640" pageHeight="420" background="none" math="0" shadow="0"><root><mxCell id="nUBrmkig5sr9rOA8GPlo-0"/><mxCell id="nUBrmkig5sr9rOA8GPlo-1" parent="nUBrmkig5sr9rOA8GPlo-0"/><mxCell id="nUBrmkig5sr9rOA8GPlo-2" value="" style="rounded=0;whiteSpace=wrap;html=1;fillColor=#f5f5f5;strokeColor=#666666;fontColor=#333333;" parent="nUBrmkig5sr9rOA8GPlo-1" vertex="1"><mxGeometry x="288" y="22" width="200" height="248" as="geometry"/></mxCell><mxCell id="nUBrmkig5sr9rOA8GPlo-3" value="&lt;p style=&quot;line-height: 1&quot;&gt;&lt;/p&gt;&lt;div style=&quot;text-align: center&quot;&gt;&lt;b style=&quot;line-height: 1&quot;&gt;&lt;font style=&quot;font-size: 14px&quot;&gt;Observations&lt;/font&gt;&lt;/b&gt;&lt;/div&gt;&lt;ul style=&quot;margin-left: -20px&quot;&gt;&lt;li style=&quot;line-height: 1.2&quot;&gt;Individual&lt;/li&gt;&lt;ul style=&quot;margin-left: -30px&quot;&gt;&lt;li&gt;Storage&lt;/li&gt;&lt;li&gt;Comfort&lt;/li&gt;&lt;li&gt;Payoff&lt;/li&gt;&lt;/ul&gt;&lt;li&gt;Shared&lt;/li&gt;&lt;ul style=&quot;margin-left: -30px&quot;&gt;&lt;li&gt;Hour&lt;/li&gt;&lt;li&gt;Available Energy&lt;/li&gt;&lt;li&gt;Equity&lt;/li&gt;&lt;li&gt;Energy Waste&lt;/li&gt;&lt;li&gt;Autonomy&lt;/li&gt;&lt;li&gt;Exclusion&lt;/li&gt;&lt;li&gt;Well-Being&lt;/li&gt;&lt;li&gt;Over-Consumption&lt;/li&gt;&lt;/ul&gt;&lt;/ul&gt;&lt;p&gt;&lt;/p&gt;" style="text;html=1;strokeColor=#000000;fillColor=#F5F5F5;align=left;verticalAlign=middle;whiteSpace=wrap;rounded=0;labelBackgroundColor=none;dashed=1;spacingTop=4;" parent="nUBrmkig5sr9rOA8GPlo-1" vertex="1"><mxGeometry x="5" y="140" width="143" height="225" as="geometry"/></mxCell><mxCell id="nUBrmkig5sr9rOA8GPlo-4" value="&lt;div style=&quot;text-align: center&quot;&gt;&lt;span&gt;&lt;b&gt;&lt;font style=&quot;font-size: 14px&quot;&gt;Action&lt;/font&gt;&lt;/b&gt;&lt;/span&gt;&lt;/div&gt;&lt;div style=&quot;text-align: center&quot;&gt;&lt;span&gt;&lt;b&gt;&lt;br&gt;&lt;/b&gt;&lt;/span&gt;&lt;/div&gt;&lt;font style=&quot;font-size: 12px&quot;&gt;1 vector of parameters&lt;/font&gt;&lt;br&gt;&lt;ul style=&quot;margin-left: -20px&quot;&gt;&lt;li&gt;Consume from micro-grid&lt;/li&gt;&lt;li&gt;Consume from storage&lt;/li&gt;&lt;li&gt;&lt;span&gt;Store energy&lt;/span&gt;&lt;/li&gt;&lt;li&gt;&lt;span&gt;Give energy&lt;/span&gt;&lt;br&gt;&lt;/li&gt;&lt;li&gt;Buy energy&lt;/li&gt;&lt;li&gt;Sell energy&lt;/li&gt;&lt;/ul&gt;" style="text;html=1;strokeColor=#000000;fillColor=#F5F5F5;align=left;verticalAlign=middle;whiteSpace=wrap;rounded=0;labelBackgroundColor=none;dashed=1;spacingTop=4;" parent="nUBrmkig5sr9rOA8GPlo-1" vertex="1"><mxGeometry x="508" y="160" width="127" height="190" as="geometry"/></mxCell><mxCell id="nUBrmkig5sr9rOA8GPlo-5" value="Prosumer Agents" style="text;html=1;strokeColor=none;fillColor=none;align=center;verticalAlign=middle;whiteSpace=wrap;rounded=0;fontSize=14;labelBackgroundColor=#F5F5F5;" parent="nUBrmkig5sr9rOA8GPlo-1" vertex="1"><mxGeometry x="288" y="2" width="200" height="20" as="geometry"/></mxCell><mxCell id="nUBrmkig5sr9rOA8GPlo-6" value="" style="group" parent="nUBrmkig5sr9rOA8GPlo-1" vertex="1" connectable="0"><mxGeometry x="401.78" y="30" width="70" height="70" as="geometry"/></mxCell><mxCell id="nUBrmkig5sr9rOA8GPlo-7" value="" style="rounded=1;whiteSpace=wrap;html=1;labelBackgroundColor=none;fillColor=#ffe6cc;strokeColor=#d79b00;" parent="nUBrmkig5sr9rOA8GPlo-6" vertex="1"><mxGeometry width="70" height="70" as="geometry"/></mxCell><mxCell id="nUBrmkig5sr9rOA8GPlo-8" value="School" style="shape=image;html=1;verticalLabelPosition=top;labelBackgroundColor=none;verticalAlign=bottom;imageAspect=1;aspect=fixed;image=https://img.icons8.com/dusk/64/000000/school.png;labelPosition=center;align=center;" parent="nUBrmkig5sr9rOA8GPlo-6" vertex="1"><mxGeometry x="26" y="18.75" width="21.25" height="21.25" as="geometry"/></mxCell><mxCell id="nUBrmkig5sr9rOA8GPlo-9" value="" style="shape=image;html=1;verticalLabelPosition=bottom;labelBackgroundColor=none;verticalAlign=top;imageAspect=1;aspect=fixed;image=https://img.icons8.com/color/48/000000/solar-panel.png;spacing=0;" parent="nUBrmkig5sr9rOA8GPlo-6" vertex="1"><mxGeometry x="10" y="40" width="18.5" height="18.5" as="geometry"/></mxCell><mxCell id="nUBrmkig5sr9rOA8GPlo-10" value="" style="shape=image;html=1;verticalLabelPosition=bottom;labelBackgroundColor=none;verticalAlign=top;imageAspect=1;aspect=fixed;image=https://img.icons8.com/cotton/64/000000/car-battery--v1.png;spacing=0;" parent="nUBrmkig5sr9rOA8GPlo-6" vertex="1"><mxGeometry x="40" y="41.75" width="16.75" height="16.75" as="geometry"/></mxCell><mxCell id="nUBrmkig5sr9rOA8GPlo-11" value="" style="group" parent="nUBrmkig5sr9rOA8GPlo-1" vertex="1" connectable="0"><mxGeometry x="300.6" y="30" width="70" height="70" as="geometry"/></mxCell><mxCell id="nUBrmkig5sr9rOA8GPlo-12" value="" style="rounded=1;whiteSpace=wrap;html=1;labelBackgroundColor=none;fillColor=#ffe6cc;strokeColor=#d79b00;" parent="nUBrmkig5sr9rOA8GPlo-11" vertex="1"><mxGeometry width="70" height="70" as="geometry"/></mxCell><mxCell id="nUBrmkig5sr9rOA8GPlo-13" value="" style="shape=image;html=1;verticalLabelPosition=bottom;labelBackgroundColor=none;verticalAlign=top;imageAspect=1;aspect=fixed;image=https://img.icons8.com/color/48/000000/solar-panel.png;spacing=0;" parent="nUBrmkig5sr9rOA8GPlo-11" vertex="1"><mxGeometry x="10" y="40" width="18.5" height="18.5" as="geometry"/></mxCell><mxCell id="nUBrmkig5sr9rOA8GPlo-14" value="" style="shape=image;html=1;verticalLabelPosition=bottom;labelBackgroundColor=none;verticalAlign=top;imageAspect=1;aspect=fixed;image=https://img.icons8.com/cotton/64/000000/car-battery--v1.png;spacing=0;" parent="nUBrmkig5sr9rOA8GPlo-11" vertex="1"><mxGeometry x="40" y="41.75" width="16.75" height="16.75" as="geometry"/></mxCell><mxCell id="nUBrmkig5sr9rOA8GPlo-15" value="Office" style="shape=image;html=1;verticalLabelPosition=top;labelBackgroundColor=none;verticalAlign=bottom;imageAspect=1;aspect=fixed;image=https://img.icons8.com/dusk/64/000000/client-company--v2.png;labelPosition=center;align=center;" parent="nUBrmkig5sr9rOA8GPlo-11" vertex="1"><mxGeometry x="25" y="20" width="20" height="20" as="geometry"/></mxCell><mxCell id="nUBrmkig5sr9rOA8GPlo-16" value="" style="group" parent="nUBrmkig5sr9rOA8GPlo-1" vertex="1" connectable="0"><mxGeometry x="310.6" y="40" width="70" height="70" as="geometry"/></mxCell><mxCell id="nUBrmkig5sr9rOA8GPlo-17" value="" style="rounded=1;whiteSpace=wrap;html=1;labelBackgroundColor=none;fillColor=#ffe6cc;strokeColor=#d79b00;" parent="nUBrmkig5sr9rOA8GPlo-16" vertex="1"><mxGeometry width="70" height="70" as="geometry"/></mxCell><mxCell id="nUBrmkig5sr9rOA8GPlo-18" value="" style="shape=image;html=1;verticalLabelPosition=bottom;labelBackgroundColor=none;verticalAlign=top;imageAspect=1;aspect=fixed;image=https://img.icons8.com/color/48/000000/solar-panel.png;spacing=0;" parent="nUBrmkig5sr9rOA8GPlo-16" vertex="1"><mxGeometry x="10" y="40" width="18.5" height="18.5" as="geometry"/></mxCell><mxCell id="nUBrmkig5sr9rOA8GPlo-19" value="" style="shape=image;html=1;verticalLabelPosition=bottom;labelBackgroundColor=none;verticalAlign=top;imageAspect=1;aspect=fixed;image=https://img.icons8.com/cotton/64/000000/car-battery--v1.png;spacing=0;" parent="nUBrmkig5sr9rOA8GPlo-16" vertex="1"><mxGeometry x="40" y="41.75" width="16.75" height="16.75" as="geometry"/></mxCell><mxCell id="nUBrmkig5sr9rOA8GPlo-20" value="Office" style="shape=image;html=1;verticalLabelPosition=top;labelBackgroundColor=none;verticalAlign=bottom;imageAspect=1;aspect=fixed;image=https://img.icons8.com/dusk/64/000000/client-company--v2.png;labelPosition=center;align=center;" parent="nUBrmkig5sr9rOA8GPlo-16" vertex="1"><mxGeometry x="25" y="20" width="20" height="20" as="geometry"/></mxCell><mxCell id="nUBrmkig5sr9rOA8GPlo-21" value="" style="group" parent="nUBrmkig5sr9rOA8GPlo-1" vertex="1" connectable="0"><mxGeometry x="320.6" y="50" width="70" height="70" as="geometry"/></mxCell><mxCell id="nUBrmkig5sr9rOA8GPlo-22" value="" style="rounded=1;whiteSpace=wrap;html=1;labelBackgroundColor=none;fillColor=#ffe6cc;strokeColor=#d79b00;" parent="nUBrmkig5sr9rOA8GPlo-21" vertex="1"><mxGeometry width="70" height="70" as="geometry"/></mxCell><mxCell id="nUBrmkig5sr9rOA8GPlo-23" value="" style="shape=image;html=1;verticalLabelPosition=bottom;labelBackgroundColor=none;verticalAlign=top;imageAspect=1;aspect=fixed;image=data:image/png,iVBORw0KGgoAAAANSUhEUgAAADAAAAAwCAYAAABXAvmHAAAABmJLR0QA/wD/AP+gvaeTAAADXUlEQVRoge2Yy2sTURTGf3cmTUxtWl8oKmrrC0Sogi9ciK3t3oUIirqtXSg+/gld6cJFW1ci/gWuLVXcKBZUUFQUi1QRpfiqNibpzHGRJp3We2cmyUyjkA8Gcicn53xnvnPOvRlooIEGGjBBBrgkg1ytN4+qMENeZq7YklBROZJBpKLA/dHEtqJwUk8kYvHanILODli1pLj+/A2evYPJbOShok+gOQU9OyHpcb1mOaxog+EnMJUDQASlVGVlp0MkJSSDXC4vOjvmki8hmYDO9tn1EFdEau+DmhWQIa4gXCjfKJWNDiuXelfnuY4AF2uJH4UCL6GqUhCEsVqD15yAOs11FP3lG5+/mY0/ffWuzql+rtUcv1YHJZT3gUwaujr/7oPcNAw/hmy+GPif3Qcms8Vp82ECCk7xej8xh3yUiGcfmMrBg1exuJ6P/34njg0yRJ8M4s5cZ+vNpyrIAGdkgDP15tFAnAicxSNdLGKq5aaCwwLJhSAFFBBus/jnye67/PYzDJxCKps5DhxdQPIATSiO8CtzLMgweB8Q6QVIpV12HJjSmriOYnR4MbYNu3p++robvdOC68Lunl9Ytv4I9fR+M7msBUp6gRt+/gIVEDgIkFnmGG3yv4uVaDcFn+kSyaJNLmeuXk+sQ0H+fBO4t691C7AWoHWJa7Qr5NUccn5IzCQ57ZOAJ9bqkf2tm/38+SYgrnSVPodRIFGBAvlwCoAzy0EH3yk0srflFnAikFWcUOpW98PJU6avfRVQcCB6RhVCqlRgeFfbJst23gBs3J5jxdqC0cnL0TQ/vtis25pndbv/kfnjWJLx10kySx227TG/pZj40MTb5ykAHLE39T76/lZnZ1TAst1Q9Q+eHkgE94Adoonnx7Qs16iCMYHS+EylXVJp8wQCKOQqGKNNwU08P64lRS46mBVAAuc/gDOtcJzwCpRsHEfhOuFUEKTbzFODO3vaNgqsB//5D7NPH8AOsQ94VfLbzObFXndvb1uHzkabQMJyy5IFKeBNIBHiD6rtsamkD1xxtWWkDSmemnt6vzmYVRW2AC8epcMbFx/qX+ciUw/4zt66QPSctAqMZZ0N8bKpCu26m//9WwlTAu8XlEU4jOtuahMQ6DP9oE4YV0r11ZtEAw00EAP+APdOFb9kZ0v3AAAAAElFTkSuQmCC;spacing=0;" parent="nUBrmkig5sr9rOA8GPlo-21" vertex="1"><mxGeometry x="10" y="40" width="19" height="19" as="geometry"/></mxCell><mxCell id="nUBrmkig5sr9rOA8GPlo-24" value="" style="shape=image;html=1;verticalLabelPosition=bottom;labelBackgroundColor=none;verticalAlign=top;imageAspect=1;aspect=fixed;image=data:image/png,iVBORw0KGgoAAAANSUhEUgAAAEAAAABACAYAAACqaXHeAAAABmJLR0QA/wD/AP+gvaeTAAAEl0lEQVR4nO2aXWgcVRTHf3c3mw/TJLIt9MOqGLQvIigorZiaCqJpFCQkqdA+mAcFoWDqk6Ev+iTSlz6ZUl8Mgi2xG7FYE0FtTVuN+lZoRdS0Vmw03x+Yj92d2evDZLO72dnMzN2dmcTMDxZm7tw558x/7z3nzt6FgICAgICATYtQuamxufUEiGNAZI1uN2VINl2+0PebWmgGDc0v7wmjfwk8sEa3JHBysD/2llP7IbWwRCdrPzxAvUiJNjX7GcJSb2Pth2c5lmMq9hUFoNxOJwEVivYzNoQ9X9iMaTVlKjcBCaA8UlbGV+fP5lzo+fgTes6cUzSbj5Qk0hP1tVcOc+RQS871Ay+0F2VfaQQIycmySFmyveXFopzbQRfhGMjhXTu309iwr+T2lUbAtwOxLinlEvB2iePJ42p/76/Ag1JK6YZ90ypgM/NuJApWJNMpYDPzbiQKViRTARxk3g1DoYpkmQM6DrfTceRQ6SPyADsVSXUd8L9h0wtgOQV6zpwr6cJmvWE6AqQk4XUgbiMhbtZuKkB69eVuSF4ih2VIxsyu2HodlsNd74DMrPrq38tcvNlVZHDFs3BHsjiSWSi2fnRr5XiwP7bmM66fJBhtgrqnPHdrKUBjc+uJZ98cPn76/KR7UZRvh7r9oM2456MANkaA6NQ0GYldmnUpBAFbXwIRhvhfLvkojJ0pUA6Q1F15GYOax6CqHvR50NwSuTD+5oBQBUQPGsfxO/6E4IvXNNEmCNcYxz4Mf/BTgIp7oHZv5jyxqUbAcuLLdr+pRkDNE1B5X+bcpwQIfggQuguiz+e2+fTtgx8CbD0I4ercNp8qAHgtQMVuqHk8v92nBAiqGyNSN1ZuUndwUwi2tWD6/lW7D7Y8mts29wMsuv9CqibA7FWoexJmv7d/T+1eo/SZUfVQ7rnUYPprpdCcoibA1IDxsUt4C0Sfs99/8gtIjDqPSwFvckD1IxCqstd3/gbMDbkbTxaqm6POmBvKf6i7n8kvh9ocTPR5ElIa/5bCVfWrGiSM94K+4GkYagJEthnfXuX9al5FOP/e6W88yfqrURNgR4cxhHe+CkJhFlXsBpG1+7b0B8xcVAqlWBQEECCW/x2jzRolyymVWcM/tQhjvSBTzu2UAIWvT8LIaah+GBZuqHnNnv8Tn4E2rWanBKhVAW0KZq+oecye/3M/wr/X1OyUCO+rQHr+J8Zg8oLn7lfjvQCV9UbeGDsLMum5+9V4L0AkCpOfQ+Jvz12b4c1KMJtxF1Z6Rfxib0cAHQiDsTcQCTv/d63UID4tlSqmpW0dlsYzCiRTOWpYvq9bCyAZRbAL4NZIgj33Ovvzp9Rg5ucUKdPN6dJzeypnZ99ynlnmACHkSr37sH/KcUDxaenZwwP0Xc/+cVVetupvKUAK2Z0+Hrq+wPEP/uGX20vubZUpkExJfp+I8+7FUX76c36lXaRCp6zutTWhn25uOyXg9SJi9IPuwf7YUatOtsrg/Gj0DYS0VHMd0S0WJjrtdHSU0g80tTdIIY8i2A/sYLk6rAN0jIR3JSRT718a+PQ7vwMKCAgICAjYAPwH98lSOLdeVvMAAAAASUVORK5CYII=;spacing=0;" parent="nUBrmkig5sr9rOA8GPlo-21" vertex="1"><mxGeometry x="40" y="41.75" width="17" height="17" as="geometry"/></mxCell><mxCell id="nUBrmkig5sr9rOA8GPlo-25" value="Office" style="shape=image;html=1;verticalLabelPosition=top;labelBackgroundColor=none;verticalAlign=bottom;imageAspect=1;aspect=fixed;image=data:image/png,iVBORw0KGgoAAAANSUhEUgAAAEAAAABACAYAAACqaXHeAAAABmJLR0QA/wD/AP+gvaeTAAAE80lEQVR4nO2bX2gcRRzHv7PZ22s1d5deoqGYP0VtPQUrVYsYMCjNQ5IHKQgiFdMWUR88H7RWsFKIiPiU+OC9iGIQQYIPlYpeKhUStClowIJSYv9JokEhTXLc7SXe7e3t+HDZu83lbv/vzon3eZub2Znf/PY3v99vZvYAnxmPf5Icj0987fe49eD9HpCCDPk9ph4cawFY01QAawFYw1wBrJ2i706wGtZOkbkFsKapANYCsIbYfXDs5YlZEPS5KYxlCLlw4oNjjznpwr4FcERxMrArUEqddmHbAlTG4hMUAKKvHttW99daXvfZDVG0PF70TClinkgcdyw70PQBTQU0FeBVx5nJJIRz39WtF5LnEf7+Yt368Mysbr1beJYKy38v62qXu7miW8+vpdwWqbYcvozSwDDbDCmdt6EoF1kNX4aZAqTBAVt5gNs0lwBrAeyiZqAqBGRJAXnx9cTRKSv9eKYA/o5OSLL97YLcEYWVTJ+CdhHQDwH0WBnHMwWEnx7S3QuMxAIoFiP46Od0zfpMv/5G84n4k1vK04mvAKDbqpzMlkBXK4dGcEG+KiAsEAx087gzXJn46f52/J4q4Nsb61jZcB4Wq31DTTTnCL69grBA8Px9AmK7OAgtld+DLQT3dgh46aE2RII+iaM5R/DNAga6eezkgetpBVOLMkSJYkMUEQ5yOHxPK/a1Cxi6+1ZMXjaXG2TXpS3lg8cHddvPTZwDsP0cwTcLUM1enfxILIAXHowgk1dw9koWALA3KvglThnfLEA1e1EqWZ/WCabzChbTBUthr5r5b35Edrm0gQp17kJs+BFTz/mmAKlYUkJIIGUlaKkXDs1CNIZtRY9lBYyOjvKhlZ53AXIUQKcjaWqwICrY18ZhuJdHclF2u3vTb7yasg8I3+x9GyBvwIPJA8D0koxcEbgrwuGV/ZW1frq/Hc/eH0bHLS06T3tHZQkQMgJQPPWMiN27zcfjxPttptqt5ig+vizh0GYeENycrxoG97QFkPgphXTeXvrsmg+gHp72ZySKL28UymUnYbAaxz6AQvkUIG+d+SJkSwCraPcCZ69kcbIv6igMOvYBYscfowB5z7YEBozEAnguFiiXu1o59EZKZdXsg7wrdx2W0EYBGcCpsfjEmwDw+MEdpjqYmcuZanf7Tq5uGFRT4Jzs+KbLMr5lggti6S0P9/IICZU3HQlyOBxrBQBcW5NqPuslphKhS/MS0tnSBCIhDgdi1tfq9JKMnpCwLQye7IsCADYKFFPX1y31qfX8djFnAS4sTTUMzqcU5DVRNi9T/LqcR2IuhYzFEEhckMuUBdh547XQhsFTDwcBAO/8sGq7PyueX90NVsPsROjPrPLfuRew4wMyk0kICoU0OFCz/rPfCrr3AuGZWYAjhmeDKt7uBm2sNaO7QSOs3g06zgT1cMsHeInjTPD/im95QDVC8jx4qphe40Y0nA8wwuj7AKs0fYBNH9Cwd4N+4ZkPMLobdBu7PsC3vYDXNJwPMMoE3abhfIDTTNAvDBWwmlZwdaGA/OYpzg6BYO+eANojjTU9z/KAa5rJA0BOori6UMCjDwT1OzaIAkZfiRl9ISL+s9XBKprGskK31deV06hBbnPy+187AgD4ZfzzLQqph1EUMPpKzGqG2HPogKX2Ko1lxwxoKoC1AKwhDfHfH1YQcoFriP/+sIJS+i89TOVW64RmwAAAAABJRU5ErkJggg==;labelPosition=center;align=center;" parent="nUBrmkig5sr9rOA8GPlo-21" vertex="1"><mxGeometry x="25" y="20" width="20" height="20" as="geometry"/></mxCell><mxCell id="nUBrmkig5sr9rOA8GPlo-26" value="" style="group" parent="nUBrmkig5sr9rOA8GPlo-1" vertex="1" connectable="0"><mxGeometry x="318" y="130.00000000000003" width="105.9" height="94" as="geometry"/></mxCell><mxCell id="nUBrmkig5sr9rOA8GPlo-27" value="" style="rounded=1;whiteSpace=wrap;html=1;labelBackgroundColor=none;fillColor=#ffe6cc;strokeColor=#d79b00;" parent="nUBrmkig5sr9rOA8GPlo-26" vertex="1"><mxGeometry width="105.9" height="94" as="geometry"/></mxCell><mxCell id="nUBrmkig5sr9rOA8GPlo-28" value="Household" style="shape=image;html=1;verticalLabelPosition=top;labelBackgroundColor=none;verticalAlign=bottom;imageAspect=1;aspect=fixed;image=https://img.icons8.com/fluent/96/000000/cottage.png;spacing=0;labelPosition=center;align=center;" parent="nUBrmkig5sr9rOA8GPlo-26" vertex="1"><mxGeometry x="34.97249999999997" y="15.949999999999989" width="32.595" height="32.595" as="geometry"/></mxCell><mxCell id="nUBrmkig5sr9rOA8GPlo-29" value="Solar &lt;br&gt;Panel" style="shape=image;html=1;verticalLabelPosition=bottom;labelBackgroundColor=none;verticalAlign=top;imageAspect=1;aspect=fixed;image=https://img.icons8.com/color/48/000000/solar-panel.png;spacing=0;" parent="nUBrmkig5sr9rOA8GPlo-26" vertex="1"><mxGeometry x="15.89500000000001" y="39" width="19.080000000000002" height="19.080000000000002" as="geometry"/></mxCell><mxCell id="nUBrmkig5sr9rOA8GPlo-30" value="Storage" style="shape=image;html=1;verticalLabelPosition=bottom;labelBackgroundColor=none;verticalAlign=top;imageAspect=1;aspect=fixed;image=https://img.icons8.com/cotton/64/000000/car-battery--v1.png;spacing=0;" parent="nUBrmkig5sr9rOA8GPlo-26" vertex="1"><mxGeometry x="69.20750000000001" y="48.55000000000001" width="16.695" height="16.695" as="geometry"/></mxCell><mxCell id="nUBrmkig5sr9rOA8GPlo-31" value="" style="group" parent="nUBrmkig5sr9rOA8GPlo-1" vertex="1" connectable="0"><mxGeometry x="328" y="140.00000000000003" width="105.9" height="94" as="geometry"/></mxCell><mxCell id="nUBrmkig5sr9rOA8GPlo-32" value="" style="rounded=1;whiteSpace=wrap;html=1;labelBackgroundColor=none;fillColor=#ffe6cc;strokeColor=#d79b00;" parent="nUBrmkig5sr9rOA8GPlo-31" vertex="1"><mxGeometry width="105.9" height="94" as="geometry"/></mxCell><mxCell id="nUBrmkig5sr9rOA8GPlo-33" value="Household" style="shape=image;html=1;verticalLabelPosition=top;labelBackgroundColor=none;verticalAlign=bottom;imageAspect=1;aspect=fixed;image=https://img.icons8.com/fluent/96/000000/cottage.png;spacing=0;labelPosition=center;align=center;" parent="nUBrmkig5sr9rOA8GPlo-31" vertex="1"><mxGeometry x="34.97249999999997" y="15.949999999999989" width="32.595" height="32.595" as="geometry"/></mxCell><mxCell id="nUBrmkig5sr9rOA8GPlo-34" value="Solar &lt;br&gt;Panel" style="shape=image;html=1;verticalLabelPosition=bottom;labelBackgroundColor=none;verticalAlign=top;imageAspect=1;aspect=fixed;image=https://img.icons8.com/color/48/000000/solar-panel.png;spacing=0;" parent="nUBrmkig5sr9rOA8GPlo-31" vertex="1"><mxGeometry x="15.89500000000001" y="39" width="19.080000000000002" height="19.080000000000002" as="geometry"/></mxCell><mxCell id="nUBrmkig5sr9rOA8GPlo-35" value="Storage" style="shape=image;html=1;verticalLabelPosition=bottom;labelBackgroundColor=none;verticalAlign=top;imageAspect=1;aspect=fixed;image=https://img.icons8.com/cotton/64/000000/car-battery--v1.png;spacing=0;" parent="nUBrmkig5sr9rOA8GPlo-31" vertex="1"><mxGeometry x="69.20750000000001" y="48.55000000000001" width="16.695" height="16.695" as="geometry"/></mxCell><mxCell id="nUBrmkig5sr9rOA8GPlo-36" value="" style="group" parent="nUBrmkig5sr9rOA8GPlo-1" vertex="1" connectable="0"><mxGeometry x="338" y="150.00000000000003" width="105.9" height="94" as="geometry"/></mxCell><mxCell id="nUBrmkig5sr9rOA8GPlo-37" value="" style="rounded=1;whiteSpace=wrap;html=1;labelBackgroundColor=none;fillColor=#ffe6cc;strokeColor=#d79b00;" parent="nUBrmkig5sr9rOA8GPlo-36" vertex="1"><mxGeometry width="105.9" height="94" as="geometry"/></mxCell><mxCell id="nUBrmkig5sr9rOA8GPlo-38" value="Household" style="shape=image;html=1;verticalLabelPosition=top;labelBackgroundColor=none;verticalAlign=bottom;imageAspect=1;aspect=fixed;image=https://img.icons8.com/fluent/96/000000/cottage.png;spacing=0;labelPosition=center;align=center;" parent="nUBrmkig5sr9rOA8GPlo-36" vertex="1"><mxGeometry x="34.97249999999997" y="15.949999999999989" width="32.595" height="32.595" as="geometry"/></mxCell><mxCell id="nUBrmkig5sr9rOA8GPlo-39" value="Solar &lt;br&gt;Panel" style="shape=image;html=1;verticalLabelPosition=bottom;labelBackgroundColor=none;verticalAlign=top;imageAspect=1;aspect=fixed;image=https://img.icons8.com/color/48/000000/solar-panel.png;spacing=0;" parent="nUBrmkig5sr9rOA8GPlo-36" vertex="1"><mxGeometry x="15.89500000000001" y="39" width="19.080000000000002" height="19.080000000000002" as="geometry"/></mxCell><mxCell id="nUBrmkig5sr9rOA8GPlo-40" value="Storage" style="shape=image;html=1;verticalLabelPosition=bottom;labelBackgroundColor=none;verticalAlign=top;imageAspect=1;aspect=fixed;image=https://img.icons8.com/cotton/64/000000/car-battery--v1.png;spacing=0;" parent="nUBrmkig5sr9rOA8GPlo-36" vertex="1"><mxGeometry x="69.20750000000001" y="48.55000000000001" width="16.695" height="16.695" as="geometry"/></mxCell><mxCell id="nUBrmkig5sr9rOA8GPlo-41" value="" style="group" parent="nUBrmkig5sr9rOA8GPlo-1" vertex="1" connectable="0"><mxGeometry x="348" y="160.00000000000003" width="105.9" height="94" as="geometry"/></mxCell><mxCell id="nUBrmkig5sr9rOA8GPlo-42" value="" style="rounded=1;whiteSpace=wrap;html=1;labelBackgroundColor=none;fillColor=#ffe6cc;strokeColor=#d79b00;" parent="nUBrmkig5sr9rOA8GPlo-41" vertex="1"><mxGeometry width="105.9" height="94" as="geometry"/></mxCell><mxCell id="nUBrmkig5sr9rOA8GPlo-43" value="Household" style="shape=image;html=1;verticalLabelPosition=top;labelBackgroundColor=none;verticalAlign=bottom;imageAspect=1;aspect=fixed;image=https://img.icons8.com/fluent/96/000000/cottage.png;spacing=0;labelPosition=center;align=center;" parent="nUBrmkig5sr9rOA8GPlo-41" vertex="1"><mxGeometry x="34.97249999999997" y="15.949999999999989" width="32.595" height="32.595" as="geometry"/></mxCell><mxCell id="nUBrmkig5sr9rOA8GPlo-44" value="Solar &lt;br&gt;Panel" style="shape=image;html=1;verticalLabelPosition=bottom;labelBackgroundColor=none;verticalAlign=top;imageAspect=1;aspect=fixed;image=https://img.icons8.com/color/48/000000/solar-panel.png;spacing=0;" parent="nUBrmkig5sr9rOA8GPlo-41" vertex="1"><mxGeometry x="15.89500000000001" y="39" width="19.080000000000002" height="19.080000000000002" as="geometry"/></mxCell><mxCell id="nUBrmkig5sr9rOA8GPlo-45" value="Storage" style="shape=image;html=1;verticalLabelPosition=bottom;labelBackgroundColor=none;verticalAlign=top;imageAspect=1;aspect=fixed;image=https://img.icons8.com/cotton/64/000000/car-battery--v1.png;spacing=0;" parent="nUBrmkig5sr9rOA8GPlo-41" vertex="1"><mxGeometry x="69.20750000000001" y="48.55000000000001" width="16.695" height="16.695" as="geometry"/></mxCell><mxCell id="nUBrmkig5sr9rOA8GPlo-46" value="" style="group" parent="nUBrmkig5sr9rOA8GPlo-1" vertex="1" connectable="0"><mxGeometry x="220.76" y="319.99999999999994" width="249.67999999999995" height="89.24999999999989" as="geometry"/></mxCell><mxCell id="nUBrmkig5sr9rOA8GPlo-47" value="" style="rounded=1;fillColor=#F5F5F5;strokeColor=#6c8ebf;whiteSpace=wrap;html=1;" parent="nUBrmkig5sr9rOA8GPlo-46" vertex="1"><mxGeometry width="249.18" height="89" as="geometry"/></mxCell><mxCell id="nUBrmkig5sr9rOA8GPlo-48" value="" style="shape=manualInput;flipV=0;flipH=1;rotation=-90;size=16;fillColor=#F5F5F5;strokeColor=#6c8ebf;whiteSpace=wrap;html=1;" parent="nUBrmkig5sr9rOA8GPlo-46" vertex="1"><mxGeometry x="174.42999999999995" y="13.999999999999886" width="28" height="122.5" as="geometry"/></mxCell><mxCell id="nUBrmkig5sr9rOA8GPlo-49" value="Environment" style="text;strokeColor=none;fillColor=none;align=center;verticalAlign=middle;rounded=0;fontSize=16;whiteSpace=wrap;html=1;" parent="nUBrmkig5sr9rOA8GPlo-46" vertex="1"><mxGeometry x="144.17999999999995" y="64.74999999999989" width="92" height="20" as="geometry"/></mxCell><mxCell id="nUBrmkig5sr9rOA8GPlo-50" value="National Grid" style="shape=image;html=1;verticalLabelPosition=top;labelBackgroundColor=none;verticalAlign=bottom;imageAspect=1;aspect=fixed;image=data:image/png,iVBORw0KGgoAAAANSUhEUgAAAGQAAABkCAYAAABw4pVUAAAABmJLR0QA/wD/AP+gvaeTAAAGUElEQVR4nO2dT6gVVRjAf1d72SPQCqQUKzVJpRZBFElugjZmtspcVISFtoxoUUZKUNvIIJdFalEktdGVGpQErRQRhCB5j/RZaRlh/imf+VqcGbx35jv/5s69M3fm+8HZzPkz3/m+Oed8c84394KiKIqitJcngVPASWBtxbK0ntXAP8BMkv4FHqtUohazFDjDdWOk6Q/g3grlaiW3AT+SN0aaTgDzK5OuZYwB32A3RpoOAXMqkrE1dICd5JW/K0nZ6zuTOsqA2IZ9JNhGztZKJG0BzwDXcK8V0tpyDXh+qJK2gKx76/KmJO9L3eESKaLg1cBlwgyoRGCbgp4LqBsyxSkRlLFIu5wAJQKbe/s5cW5sB/ikhHZaT5lP9hhwUGhvWymSVsgTwAT+N2RNvWkCWBOq5JhhewpYFFFeuc5pAnU3a8CCKJHEGGQzMDkoQRrMJLBpGDfKzpUAdwMHhLwZ4CLwOv6HwDYXnwaWFJDzTsxpoq1dFx3Mg3jeUnc/cJdF7qFjE8DXiUPAsoh2u9MJ4I4IGefjPjdxKc73cL1C7xpcW4OkFB0tPq/lGHBrgHxzgcMB7WUp+kDV3iBgOvcy9s4dwBjO1e5u4dohYNwh23hSJqStblwP0fmkLzbPtHKDTHbdfMJTNma0ZPNnA18J1/diXvqy+MpLiut3mo3Vx0BYA0wlKeTFxzdaDgKLhetgf+J30fvEdpBPDrtHVDZvMfKbfMio6EcftcE3LdiG/i3AUSF/e1eZ7UL+0aRuSsg9bdNpY/FNEba52OY1bUXe/5K8Mt/9Qt3zRuIaLbbFcQnmncSnWNt7i6tOq0aFDd9okbgPOGcpPwP8BTxgqaujIhDbaLHxMPC3UP4i5gjXRhEPqrV0CDfIKuCCUP5CkmcjW14PqjyEGOR+ypuyFA/DXtQVD0Xc3rcwrq/k9i6IaF8RsClsLnBEyP+wq8x7Qn52M1INEomksHHgOyHvU3pd1Q7wsVDuB+BmR/uKg6zCxoB9wvXYzcX9wI3CdcVDVmHD3H5XBHze06APqJQMLuUN8whXSYh9r/DRT5BDrdHIxWJJIxdriEYujioauTh4Ghu5eIZin6QtBX5xtOtCIxctddIkbRa60MjFLuoQuShtRvrk1shFT7sauRhI1ZGL+7BvLn4tlNfIxQyDiFzcTT5y0TeisnkauYhGLtYOjVysKRq5WEM0crGmaORiDdHIxRoSYhCNXBwiw17UFQ9F3F6NXBwgNoVp5GJFSAqLiVz8SCinkYt9kFWYK3LxBqG+Ri6WTFZhGrlYMT7vSSMXh4xLeRq5WAGx7xU+Ghu5OCwkpbnevENwbUYqDpaTV9hF3HtToaxK2sq2v7yEtkujTtvNczC/pytdv6eE9hdh3N4se4CbSmi/cUjHr2m6StjPi9tYD0w72n+/j7YbyRryv9NellF8xphJ7v1UXz1oEAuBs/QqaAITD5tV5DSwIaLtDZY2NpH/tOJsIkurmUX+lHCa64v40+QVGjpSpJFxFXg2yX8IuJLJ/xaz9dJatpCfPrZkyhQxis8YKW8K93+jcG9GnJgnNMYoocYA/whtDfPIz+G/457DQ4wSY4yU24HfMnV+Jmy/rDF8RjEvx2WUIsZIkby8L4N7M+JsJD9vb3fW6MXmOfXrkUnvQRsj6o8ky8gHxB0j/k1ZGilFRkY3c8gfEV8AVkS2MzKU1eGVwDu4w4DOJWVWRra9gnys1xEa+p9V0pTwYmDdhZhPyL4X2vCl48DbmM8OQnhJaKNxWyvSornHU2ccs1Dvxb/1EZL+wxh0M+Y00UVRp2MksG2NzBPKjgHrgC+AS/iVfCkpu66PetJXWJJb3oitldAXrweBD5D/sD72SY8dWX9ifi/+cXrjfBu5tSJtTaRbIyswc/tPQpky1gKIX3tOYh6M9HTSJf/I8Qj5J+w48Bph0SDp1PYu8d6SxMqkrdAf0DmcyHo8c/1K0reRQpqDQ5NtCimTmClSSiO3tZL1UnzpMmbOX498zDooZmMMvwv54x9X8nmJtUHaGpHSVUx45wv43dBhMBcjy36MbCF9GImtFd+3G4eBV4n7zZJhswAjo2+tm6pKwBimkBfnIlsZdSDdqpHWxFMVyhXMWoxRfgV2AI/SjO/4Opi+7MD0bQrTV0VRFEWpBf8DxsmT9RAU3/oAAAAASUVORK5CYII=;labelPosition=center;align=center;fontSize=14;imageBackground=none;" parent="nUBrmkig5sr9rOA8GPlo-46" vertex="1"><mxGeometry x="20" y="23.75" width="51" height="51" as="geometry"/></mxCell><mxCell id="nUBrmkig5sr9rOA8GPlo-51" style="edgeStyle=none;rounded=0;orthogonalLoop=1;jettySize=auto;html=1;endArrow=none;endFill=0;" parent="nUBrmkig5sr9rOA8GPlo-46" source="nUBrmkig5sr9rOA8GPlo-53" target="nUBrmkig5sr9rOA8GPlo-50" edge="1"><mxGeometry relative="1" as="geometry"/></mxCell><mxCell id="nUBrmkig5sr9rOA8GPlo-52" value="" style="group;fontSize=14;" parent="nUBrmkig5sr9rOA8GPlo-46" vertex="1" connectable="0"><mxGeometry x="94.18" y="10" width="50" height="50" as="geometry"/></mxCell><mxCell id="nUBrmkig5sr9rOA8GPlo-53" value="" style="ellipse;shape=doubleEllipse;whiteSpace=wrap;html=1;labelBackgroundColor=none;fillColor=#dae8fc;strokeColor=#6c8ebf;" parent="nUBrmkig5sr9rOA8GPlo-52" vertex="1"><mxGeometry width="50" height="50" as="geometry"/></mxCell><mxCell id="nUBrmkig5sr9rOA8GPlo-54" value="Smart Grid" style="text;html=1;strokeColor=none;fillColor=none;align=center;verticalAlign=middle;whiteSpace=wrap;rounded=0;labelBackgroundColor=none;fontSize=14;" parent="nUBrmkig5sr9rOA8GPlo-52" vertex="1"><mxGeometry x="5" y="15.5" width="40" height="20" as="geometry"/></mxCell><mxCell id="4utyA_n6GycvPWYSW6Ga-2" value="" style="shape=image;aspect=fixed;image=data:image/svg+xml,PD94bWwgdmVyc2lvbj0iMS4wIiBlbmNvZGluZz0idXRmLTgiPz4NCjwhLS0gR2VuZXJhdG9yOiBBZG9iZSBJbGx1c3RyYXRvciAyMy4wLjYsIFNWRyBFeHBvcnQgUGx1Zy1JbiAuIFNWRyBWZXJzaW9uOiA2LjAwIEJ1aWxkIDApICAtLT4NCjxzdmcgdmVyc2lvbj0iMS4xIiBpZD0iTGF5ZXJfMSIgeG1sbnM9Imh0dHA6Ly93d3cudzMub3JnLzIwMDAvc3ZnIiB4bWxuczp4bGluaz0iaHR0cDovL3d3dy53My5vcmcvMTk5OS94bGluayIgeD0iMHB4IiB5PSIwcHgiDQoJIHZpZXdCb3g9IjAgMCAxMjggMTI4IiBzdHlsZT0iZW5hYmxlLWJhY2tncm91bmQ6bmV3IDAgMCAxMjggMTI4OyIgeG1sOnNwYWNlPSJwcmVzZXJ2ZSI+DQo8c3R5bGUgdHlwZT0idGV4dC9jc3MiPg0KCS5zdDB7ZmlsbDojNkJDMUIwO30NCgkuc3Qxe2ZpbGw6I0ZGRkZGRjt9DQoJLnN0MntmaWxsOiMzMTU2OTM7fQ0KPC9zdHlsZT4NCjx0aXRsZT5XQVRFUiBFTkVSR1k8L3RpdGxlPg0KPGc+DQoJPHBhdGggY2xhc3M9InN0MCIgZD0iTTg4LjIsNjUuN2MwLDExLjctOS41LDIxLjItMjEuMiwyMS4yYy0xMS43LDAtMjEuMi05LjUtMjEuMi0yMS4yQzQ1LjgsNTQsNjcsMjcuNiw2NywyNy42Uzg4LjIsNTQsODguMiw2NS43eg0KCQkiLz4NCgk8cG9seWdvbiBjbGFzcz0ic3QxIiBwb2ludHM9Ijc0LjMsNTkuNiA2Nyw1OS42IDY3LDQ3IDU5LjcsNjQuMiA2Nyw2NC4yIDY3LDc2LjggCSIvPg0KCTxwYXRoIGNsYXNzPSJzdDIiIGQ9Ik0xMDUuMSw5My40Yy0wLjgtMC41LTEuOS0wLjItMi40LDAuN2MtMi40LDQuMy03LjgsNS45LTEyLjEsMy41Yy0xLjUtMC44LTIuNy0yLTMuNS0zLjUNCgkJYy0wLjctMS4yLTIuNS0xLjEtMy4xLDBjLTIuNCw0LjMtNy44LDUuOS0xMi4xLDMuNWMtMS41LTAuOC0yLjctMi0zLjUtMy41Yy0wLjYtMS4yLTIuNC0xLjItMy4xLDBjLTIuNCw0LjMtNy44LDUuOS0xMi4xLDMuNQ0KCQljLTEuNS0wLjgtMi43LTItMy41LTMuNWMtMC42LTEuMS0yLjMtMS4zLTMuMSwwYy0yLjQsNC4zLTcuOCw1LjktMTIuMSwzLjVjLTEuNS0wLjgtMi43LTItMy41LTMuNWMtMC41LTAuOC0xLjUtMS4yLTIuNC0wLjcNCgkJYy0wLjgsMC41LTEuMiwxLjUtMC43LDIuNGMzLjMsNiwxMC44LDguMiwxNi44LDQuOWMxLjMtMC43LDIuNC0xLjYsMy4zLTIuN2M0LjUsNS4xLDEyLjMsNS43LDE3LjUsMS4yYzAuNC0wLjQsMC44LTAuOCwxLjItMS4yDQoJCWM0LjUsNS4xLDEyLjMsNS43LDE3LjUsMS4yYzAuNC0wLjQsMC44LTAuOCwxLjItMS4yYzQuNSw1LjIsMTIuMyw1LjcsMTcuNSwxLjJjMS4xLTAuOSwyLTIuMSwyLjctMy4zDQoJCUMxMDYuMyw5NSwxMDYsOTMuOSwxMDUuMSw5My40QzEwNS4xLDkzLjQsMTA1LjEsOTMuNCwxMDUuMSw5My40eiIvPg0KPC9nPg0KPC9zdmc+DQo=;" parent="nUBrmkig5sr9rOA8GPlo-46" vertex="1"><mxGeometry x="171.43" y="10.000000000000057" width="50" height="50" as="geometry"/></mxCell><mxCell id="4utyA_n6GycvPWYSW6Ga-6" style="edgeStyle=orthogonalEdgeStyle;rounded=0;orthogonalLoop=1;jettySize=auto;html=1;exitX=1;exitY=0.5;exitDx=0;exitDy=0;entryX=0.156;entryY=0.5;entryDx=0;entryDy=0;entryPerimeter=0;fontSize=14;endArrow=none;endFill=0;strokeColor=#000000;strokeWidth=1;" parent="nUBrmkig5sr9rOA8GPlo-46" source="nUBrmkig5sr9rOA8GPlo-53" target="4utyA_n6GycvPWYSW6Ga-2" edge="1"><mxGeometry relative="1" as="geometry"/></mxCell><mxCell id="nUBrmkig5sr9rOA8GPlo-55" value="" style="group" parent="nUBrmkig5sr9rOA8GPlo-1" vertex="1" connectable="0"><mxGeometry x="358" y="170.00000000000003" width="105.9" height="94" as="geometry"/></mxCell><mxCell id="nUBrmkig5sr9rOA8GPlo-56" value="" style="rounded=1;whiteSpace=wrap;html=1;labelBackgroundColor=none;fillColor=#ffe6cc;strokeColor=#d79b00;" parent="nUBrmkig5sr9rOA8GPlo-55" vertex="1"><mxGeometry width="105.9" height="94" as="geometry"/></mxCell><mxCell id="nUBrmkig5sr9rOA8GPlo-57" value="Household" style="shape=image;html=1;verticalLabelPosition=top;labelBackgroundColor=none;verticalAlign=bottom;imageAspect=1;aspect=fixed;image=data:image/png,iVBORw0KGgoAAAANSUhEUgAAAGAAAABgCAYAAADimHc4AAAABmJLR0QA/wD/AP+gvaeTAAAHU0lEQVR4nO2cTYwURRTH/9XdMzvs7Mwyu8smkIjswQhqsgQIBxVDSMCrkQMxnozZjYKIoAZuJkqIHFAEMSZevHjRk948cDExMQGiiSeuwEncIPOxw850V3mYr+6e6q6qnu6tga1fMslO9etXr9579aq6pgEwGAwGg8FgMBgMBoPBYDBsFIiM0N+v4Cniki8BcgRAKWObRoZxW0lEe4Q8C7cT/6VIPQyoAbjuWPa5xd/XbgtMFQeg43zrLwAzIlldpOJwAGzoAomXj29/4Lm5xf03mncjxAAAVtxFAOhk/vg5n/k+AwhY/yMhzzpO7306Dic+PcNO5vfba+vc19VRcRz3kmgcjkigW3a0k01Z6eiI1i/TTiLaAQa8GnF7H4kA6Kv5Omt5dPtw1Y6RL0dc6iMTgHVjPB0e1JFETxxaAzCmiydGdTiT21wC0BCA8cxypbIS0U7CDVJkHoDxdHhQRzI9fIerlqHUA6A6LVXLSnwfce2jZnkoaRj3Tyn9flIJwHhmeXZlRV6PeC1IFIDHcU8u156Ow1XKkHQAnsws59i/Dk73IwxA2GEbbfFMa5ZGIRGAdBbPrB0efW3UxTONpIlGaQ14PMqKviyPSpo4FEsQtJcVBuARZWh6DC7ttDsWwSbbwoTV1bTuDh/oiJPnITcDxiTLGYD/2hQt2jvy7dCiQItS5C2CaYdw80/XjkuEeAawYGc6F8+qy7rO58u1KEPVBaYd3mZhnbe4khFJfxHu/5XubqXpAU1PPKo1CjQpULA0JA0Lt6f8IKZr8XQZUPNo4FJpz0EU3zwLxhgaP1xE7c/f+tdqHoNDCGzJ87H1dHgY4U+SzPcZbvP/BBeU5cuH20ng0xPo/0zYla+61Le9JSguPIepdz4HKVVglWdQevciJhd2DfQyoOZSUCX7iZz9vi9+HSxUpsM6ohAGIKg0aHBcZ/x2vsP7TufoaXhAmw3usfN5lE9fGbKvfPoqnPxE/3ubBUuW3+lK9oeiEnR4Mqf7kZgBaWY5uA6P0tNiQMNjg+sE2PzWJ0BhangghSIqS58F+mt4QJsGnS60n4WzPJQ0wvGmPAOyKivRejqOot1dj1+2vHgA+b2HIm3NLR5AaffLgbaqywKliDu20EB4Dg/bGt8+eLNChHQJijaAkyGCshJncK+97jH4Nz35ySkUly8IbSwtX0BuqtTvxwPQcFmw39Sz3G8//3WWKBIuwjFlRSHLowxeo8Ajjw0cQixsPnUZxBFv2ojjYPbUFRBi9ft5RIE1ynwO52e52myPtj/VEjTcmdziyXO4zAtPHgNqLgs4ZvrQUTgLz8uZCsB++llMH3kj0FZ3AU9h8YyfpZIvfkkguQiD63D5LJdfQ2rdmt2jMLcVxWNnFIcFFI+eQGFua18/BVB3aSZZHt2ewhqQVlkRG0ywSglavovEtlA5c1U4iCgqH38Dy3b6trUZwRp3a9rvcWgMfsSzxb/FJZyj+WFGXIRHeY8yaLDLgIYvQwGCmddPwJrbpmJiALsyj5lj7wfysEEBl7F+H+lkuW+Ly+B711SM4iI8epbz9uQUQM0LDmZyYRcKh4N1PAmbDh7Fph07A3Y1PCS0P+xwEnQ4G5YXITED4rdXatOSL9/0AJcOWuxcHpXTlyXMl6Ny5qvuU3JvthE0aRL7+Q6P0yNCagbwDVPL8ij5FgVW/XWZALNv8592k2IViphd+hTElwRNj6HtqxOqZSV+XPwHOa5tIoG0Hd4bELoDqnePGnqf8uIB5PccFBquysTiS5ja/WLApoYHdB4PRsvyuPMhEQkX4XQOtGouuk+7HV25yRLKy+dVTFJievk8csXeG+MElBGs0oGNo2Z5lHwcMjPgnnKWMwgf9VsM3S1n57tlW5j7QO5pNymW42D+1CVYth0ogW3OehDv8PiDSR+x/zwJkAvAMgXuyZaVnkDcgZYHoN49nyGEoDC/DfPnvoOzY6fInJFxduzE1rPfYmLLNhDSsW3VY/BCcsPl1d8uleF3GWPLIiHln3Bu3ryputBvKPbt26fkU6U1wJA+JgCaMQHQjAmAZkwANJPZpvtGNY9rd8tYafFjPJvzcHJ7HXvLa7F6crf/QPGXL2BV7yv1T8tbsPraR2g9s39d7ExKZjPg2p1S5KAAYKVt4+s74vOeJM4HAKt6H5M/C/+ngNTsTEpmAVhp20KZfyVkkji/f+/Df4QyadmZFLMGaMYEQDMmAJoxAdCMCYBmTAA0YwKgGRMAzZgAaCazAMzmwj/yDTMnIZM1uu3MLAAnt9djBzeX8/De9lpW3Uuj287MTkP3ltfw/QvZnCCmiW47zRqgGRMAzZgAaMYEQDMmAJpR3gXdunUrCzsiOTzi/ettrypmBmjGBEAzJgCaSRIA/ecH48tD1RuSBOB6gns2BIyxX1XvUQ6A53nnADxQvW8DsGLb9oeqNykH4Pjx47dd110E8BOAqur9TyBVxtiPlmXtXlpauqfbGIPBYDAYDAaDwWAwGAwGw/jyP5BcI4f0gPX/AAAAAElFTkSuQmCC;spacing=0;labelPosition=center;align=center;" parent="nUBrmkig5sr9rOA8GPlo-55" vertex="1"><mxGeometry x="34.97249999999997" y="15.949999999999989" width="33" height="33" as="geometry"/></mxCell><mxCell id="nUBrmkig5sr9rOA8GPlo-58" value="Solar &lt;br&gt;Panel" style="shape=image;html=1;verticalLabelPosition=bottom;labelBackgroundColor=none;verticalAlign=top;imageAspect=1;aspect=fixed;image=data:image/png,iVBORw0KGgoAAAANSUhEUgAAADAAAAAwCAYAAABXAvmHAAAABmJLR0QA/wD/AP+gvaeTAAADXUlEQVRoge2Yy2sTURTGf3cmTUxtWl8oKmrrC0Sogi9ciK3t3oUIirqtXSg+/gld6cJFW1ci/gWuLVXcKBZUUFQUi1QRpfiqNibpzHGRJp3We2cmyUyjkA8Gcicn53xnvnPOvRlooIEGGjBBBrgkg1ytN4+qMENeZq7YklBROZJBpKLA/dHEtqJwUk8kYvHanILODli1pLj+/A2evYPJbOShok+gOQU9OyHpcb1mOaxog+EnMJUDQASlVGVlp0MkJSSDXC4vOjvmki8hmYDO9tn1EFdEau+DmhWQIa4gXCjfKJWNDiuXelfnuY4AF2uJH4UCL6GqUhCEsVqD15yAOs11FP3lG5+/mY0/ffWuzql+rtUcv1YHJZT3gUwaujr/7oPcNAw/hmy+GPif3Qcms8Vp82ECCk7xej8xh3yUiGcfmMrBg1exuJ6P/34njg0yRJ8M4s5cZ+vNpyrIAGdkgDP15tFAnAicxSNdLGKq5aaCwwLJhSAFFBBus/jnye67/PYzDJxCKps5DhxdQPIATSiO8CtzLMgweB8Q6QVIpV12HJjSmriOYnR4MbYNu3p++robvdOC68Lunl9Ytv4I9fR+M7msBUp6gRt+/gIVEDgIkFnmGG3yv4uVaDcFn+kSyaJNLmeuXk+sQ0H+fBO4t691C7AWoHWJa7Qr5NUccn5IzCQ57ZOAJ9bqkf2tm/38+SYgrnSVPodRIFGBAvlwCoAzy0EH3yk0srflFnAikFWcUOpW98PJU6avfRVQcCB6RhVCqlRgeFfbJst23gBs3J5jxdqC0cnL0TQ/vtis25pndbv/kfnjWJLx10kySx227TG/pZj40MTb5ykAHLE39T76/lZnZ1TAst1Q9Q+eHkgE94Adoonnx7Qs16iCMYHS+EylXVJp8wQCKOQqGKNNwU08P64lRS46mBVAAuc/gDOtcJzwCpRsHEfhOuFUEKTbzFODO3vaNgqsB//5D7NPH8AOsQ94VfLbzObFXndvb1uHzkabQMJyy5IFKeBNIBHiD6rtsamkD1xxtWWkDSmemnt6vzmYVRW2AC8epcMbFx/qX+ciUw/4zt66QPSctAqMZZ0N8bKpCu26m//9WwlTAu8XlEU4jOtuahMQ6DP9oE4YV0r11ZtEAw00EAP+APdOFb9kZ0v3AAAAAElFTkSuQmCC;spacing=0;" parent="nUBrmkig5sr9rOA8GPlo-55" vertex="1"><mxGeometry x="15.89500000000001" y="39" width="19" height="19" as="geometry"/></mxCell><mxCell id="nUBrmkig5sr9rOA8GPlo-59" value="Storage" style="shape=image;html=1;verticalLabelPosition=bottom;labelBackgroundColor=none;verticalAlign=top;imageAspect=1;aspect=fixed;image=data:image/png,iVBORw0KGgoAAAANSUhEUgAAAEAAAABACAYAAACqaXHeAAAABmJLR0QA/wD/AP+gvaeTAAAEl0lEQVR4nO2aXWgcVRTHf3c3mw/TJLIt9MOqGLQvIigorZiaCqJpFCQkqdA+mAcFoWDqk6Ev+iTSlz6ZUl8Mgi2xG7FYE0FtTVuN+lZoRdS0Vmw03x+Yj92d2evDZLO72dnMzN2dmcTMDxZm7tw558x/7z3nzt6FgICAgICATYtQuamxufUEiGNAZI1uN2VINl2+0PebWmgGDc0v7wmjfwk8sEa3JHBysD/2llP7IbWwRCdrPzxAvUiJNjX7GcJSb2Pth2c5lmMq9hUFoNxOJwEVivYzNoQ9X9iMaTVlKjcBCaA8UlbGV+fP5lzo+fgTes6cUzSbj5Qk0hP1tVcOc+RQS871Ay+0F2VfaQQIycmySFmyveXFopzbQRfhGMjhXTu309iwr+T2lUbAtwOxLinlEvB2iePJ42p/76/Ag1JK6YZ90ypgM/NuJApWJNMpYDPzbiQKViRTARxk3g1DoYpkmQM6DrfTceRQ6SPyADsVSXUd8L9h0wtgOQV6zpwr6cJmvWE6AqQk4XUgbiMhbtZuKkB69eVuSF4ih2VIxsyu2HodlsNd74DMrPrq38tcvNlVZHDFs3BHsjiSWSi2fnRr5XiwP7bmM66fJBhtgrqnPHdrKUBjc+uJZ98cPn76/KR7UZRvh7r9oM2456MANkaA6NQ0GYldmnUpBAFbXwIRhvhfLvkojJ0pUA6Q1F15GYOax6CqHvR50NwSuTD+5oBQBUQPGsfxO/6E4IvXNNEmCNcYxz4Mf/BTgIp7oHZv5jyxqUbAcuLLdr+pRkDNE1B5X+bcpwQIfggQuguiz+e2+fTtgx8CbD0I4ercNp8qAHgtQMVuqHk8v92nBAiqGyNSN1ZuUndwUwi2tWD6/lW7D7Y8mts29wMsuv9CqibA7FWoexJmv7d/T+1eo/SZUfVQ7rnUYPprpdCcoibA1IDxsUt4C0Sfs99/8gtIjDqPSwFvckD1IxCqstd3/gbMDbkbTxaqm6POmBvKf6i7n8kvh9ocTPR5ElIa/5bCVfWrGiSM94K+4GkYagJEthnfXuX9al5FOP/e6W88yfqrURNgR4cxhHe+CkJhFlXsBpG1+7b0B8xcVAqlWBQEECCW/x2jzRolyymVWcM/tQhjvSBTzu2UAIWvT8LIaah+GBZuqHnNnv8Tn4E2rWanBKhVAW0KZq+oecye/3M/wr/X1OyUCO+rQHr+J8Zg8oLn7lfjvQCV9UbeGDsLMum5+9V4L0AkCpOfQ+Jvz12b4c1KMJtxF1Z6Rfxib0cAHQiDsTcQCTv/d63UID4tlSqmpW0dlsYzCiRTOWpYvq9bCyAZRbAL4NZIgj33Ovvzp9Rg5ucUKdPN6dJzeypnZ99ynlnmACHkSr37sH/KcUDxaenZwwP0Xc/+cVVetupvKUAK2Z0+Hrq+wPEP/uGX20vubZUpkExJfp+I8+7FUX76c36lXaRCp6zutTWhn25uOyXg9SJi9IPuwf7YUatOtsrg/Gj0DYS0VHMd0S0WJjrtdHSU0g80tTdIIY8i2A/sYLk6rAN0jIR3JSRT718a+PQ7vwMKCAgICAjYAPwH98lSOLdeVvMAAAAASUVORK5CYII=;spacing=0;" parent="nUBrmkig5sr9rOA8GPlo-55" vertex="1"><mxGeometry x="69.20750000000001" y="48.55000000000001" width="17" height="17" as="geometry"/></mxCell><mxCell id="nUBrmkig5sr9rOA8GPlo-61" style="edgeStyle=orthogonalEdgeStyle;rounded=0;orthogonalLoop=1;jettySize=auto;html=1;labelBackgroundColor=none;strokeWidth=2;fontColor=#F5793A;strokeColor=#8000FF;" parent="nUBrmkig5sr9rOA8GPlo-1" source="nUBrmkig5sr9rOA8GPlo-47" target="nUBrmkig5sr9rOA8GPlo-2" edge="1"><mxGeometry relative="1" as="geometry"><Array as="points"><mxPoint x="148" y="365"/><mxPoint x="148" y="140"/></Array></mxGeometry></mxCell><mxCell id="nUBrmkig5sr9rOA8GPlo-63" style="edgeStyle=orthogonalEdgeStyle;rounded=0;orthogonalLoop=1;jettySize=auto;html=1;entryX=1;entryY=0.5;entryDx=0;entryDy=0;labelBackgroundColor=none;strokeWidth=2;fontColor=#A95AA1;strokeColor=#49315E;" parent="nUBrmkig5sr9rOA8GPlo-1" source="nUBrmkig5sr9rOA8GPlo-2" target="nUBrmkig5sr9rOA8GPlo-47" edge="1"><mxGeometry relative="1" as="geometry"><Array as="points"><mxPoint x="508" y="146"/><mxPoint x="508" y="365"/><mxPoint x="470" y="365"/></Array></mxGeometry></mxCell><mxCell id="nUBrmkig5sr9rOA8GPlo-71" value="" style="group" parent="nUBrmkig5sr9rOA8GPlo-1" vertex="1" connectable="0"><mxGeometry x="411.78" y="40" width="70" height="70" as="geometry"/></mxCell><mxCell id="nUBrmkig5sr9rOA8GPlo-72" value="" style="rounded=1;whiteSpace=wrap;html=1;labelBackgroundColor=none;fillColor=#ffe6cc;strokeColor=#d79b00;" parent="nUBrmkig5sr9rOA8GPlo-71" vertex="1"><mxGeometry width="70" height="70" as="geometry"/></mxCell><mxCell id="nUBrmkig5sr9rOA8GPlo-73" value="School" style="shape=image;html=1;verticalLabelPosition=top;labelBackgroundColor=none;verticalAlign=bottom;imageAspect=1;aspect=fixed;image=data:image/png,iVBORw0KGgoAAAANSUhEUgAAAEAAAABACAYAAACqaXHeAAAABmJLR0QA/wD/AP+gvaeTAAAIQElEQVR4nO2ae2xT1x3HP+fasR0/4thJCiSYJDwCpTwHtCKwQjdpmrb1j+7BtGkrj3Udagwr5bVqqpSq27qKBioSGGKUMDpN07r2r22dumlAITzKeFewDkhCvRAIifNwHn7esz+MgeCbxEnsQMGf/3zvub/zPd97zvdeH11IkyZNmjQPL+JedVxRtufLCFkFqCqUra9avv9e6BhxAzav2eUkpLwuET++q/931bDOvX7Hs00jqWfEDCgvL1eszUXPCeSvAYdOL5g5xw7AmRPtRMISCS0KYuOaqqW7BUKOhK4RMWCzu3q6lOxAUAowpsBE6WIndkcGAB3tYY4e8PK/z3pil9SoSmTl+q3PfZJqbSk1YPOaP2XKUNdG4GXAkJmpY94CBxMnWzR79tT3cHi/l67OMCDCSHW7Sfb8vGx7WWeqNKbMgE2r9nxdUWUVgiIETJxs4YmFTowmpd/rggGVk8fauPCJD6kCUCdRytZVLf0gFTqTbsCWF98ZIyPhN6TkhwDO3AwWLM4lb7RhUHVabgSp2eeluSkQk/oXVPWFtdtXeJKpN2kG3BFym4AsXYZgxmw7M+ba0WncdKHoMdocIAQBnxcZCce1UaXkwlkfJ4+2EwqpAF1IXnM1Wd5c8u6SSDJ0J8WAilW/m41UdwCPA7iKzMxf5MBq02t2qTdbMVidCBHtXkqVUFc7oa4OID78u7siHPuolbrLXTePyFNC6Fa+VLn04+FqH5YBm9bttSiByCtI1gE6s0XH3PkOJk6xaLZX9AaMWTkoGUbN82o4SKCjBTUU0Dzvqe/hyAEvnb4wgCqQu/TCsH515Q86hjqGIRuweVX101KyDXApQjBlupU587PJyIif70IoZFjsZFiyEuhSEu7uJNjZiryZgncSCUvOnuzg7L/biERPNyLEz9ZWLts7lHEM2oBN7r3FCpEq4GsAOXkGShfnkDdKO+T0xkwMthyETms59I1UwwR9bYT92k9Ab3OImn0t3LgenS0C/ir0uNe8tbx+MP0kbEB5ebne2lxYJhC/AGk1GBVmP25n6vQsRD8hpzNpL4dEiQS6+wxJJFz6tItjh7wE/CpAN7DJl2v5VXn5kmAi9RMyYIt7zwIVdoCcBtGQK13swGJNLOSGy0Ah2dMd4fjhVi79JxaSnEORK9duXXF4oNr9KtzyYnW2GpKvIoQbUGx2PaVPOikozNRsP1DIDZeBQrKxIcDh/S20t4YApBD83qAqa9zblrb0VbNPAyrc1d8BqoBHFEUwZZqVuaUO9Pr4SwYXcsMlwZA80U4kIgGuI8SGlyqXvqP1BytO7Vs/fXtyJCx+gxBPxY598/v5ZDszNOVohpyE6w0+PHVtNF5px9fmp7szuiRNmRmYrQZGjbVRVJIDSOo+baGpwUd3Zwh/TwgAs9WALdtE/rgsxo53MKrA1kvtQCHZ5g3x/h+u3iFJ/FNV5Asbti6/qGlA+bJqk9UmXxZSbASMCNGMlLkAK9yFcR1ohZy/J8S5jxu5cLKRdq9fU9hQsTtNPDpnDNPn5WPKvG12fyG5u+oKABJaBOQAfiHF63ql443VlasDAPpoAykqrHuOCClmRX+y2yjFhoCQzfFS4kMuEpGcqvFw4qPPCAaib6gms4GSGWMoGJ9D7mg7ZpsRnU7g7w7iberEc7mZEwcuAzBn0QRcE/Nw5lkwmQ1EIpJun58bjR001LZw8dxV2r1+jv6jjlMHPXzhyXHMLh2LTifQGc1kGkz9hiTB4BRpMLwp4Fkp5KshbN+QyCcEQupvD4sIcEaqqnvd9h8dAqhwV/eq01fIvf/2aa55oi9j4yblMbO0iPGPjkKn18VpMZkNZOdaGT919C0DFj09La6dxWYkL9/O1DkuvvTMdGrPN3G6phbP5WaOfFhL/YVmvv387Kh2oWCwOtCbLJohuW7nT5qBZZvc1XsU2CYlGbE80EcHLyRVzI23jlsd9BdyscF/6/lSCkvy+iozZHR6HZNmjGHSjDFc+e8N3tt5mEZP/NuvojeQ6Rx9KyTv5ua+42N3Hkvo9SwztwChxN/Nu4kN/o+VB7l6xavZpqA4h++WLdQ8l8h1Axss0Jtt6ExmoG5Azf3vTsRKJjD43u2H9igc6nXatRLTPLgX9ATp6w6n6rrhkNAMeJBJyQxIZQYkm5TMgPshAxIlnQEj3uN9RkpmQAytNT3YDEjV2o+R0hkw2DX9wGRAjMHeuXQG3ANSNgNarvmoPX+Nhnov3qZO/N0BVFViNGWQ5TCTX+S41fbg387TWN9Ku7eLYCCMXq+QaTGS5TRTUOTENTGP0a7slGw2JdWAQE+Is0evcPZIHe3ebs02QX8YX1sPDXW3t+mO/6vXJg0BoMsXoPlaB7XnrwGQnWvlsXkuZs4vTqbk5Brw219+SNAf3Zmx2IwUljhwjXdgd2ZizY7uIQR7wnS0+bla18bpow0gYVbpWPKL7GRlmzDc3O3pbAvQ7u3Bc7mVKxdbaWvupOaDCxzfd7HP/odCUg0I+sO4JmQzq9RF4USHZqpbrAYceWYKJzmZ/5Xxfday3Nw3LJnxCFKV1F9q5UyNB09tWzIlJ8eAscXZ+HvCLPzqBFwTspNRshdCERSXOCkuceK53Mqhv9f22hccDkmp8syKmckokxCuCQ6+VzYnafUe+sdg2oB7LeBeMygD/rzzFO/tOv25OjYQgwpBra3o+/3YQDz0S2BQMyC/0P65OzYQ/f69qHBXS4BVry0adOH7gcpXDgCwtmp5n+N86JdAL2cqyqprYh80P7AIcWht5bIvxn72ngGKiP/k4kFDyhH5DD9NmjRp0qRJc//zfzjPZlZkUneGAAAAAElFTkSuQmCC;labelPosition=center;align=center;" parent="nUBrmkig5sr9rOA8GPlo-71" vertex="1"><mxGeometry x="26" y="18.75" width="21" height="21" as="geometry"/></mxCell><mxCell id="nUBrmkig5sr9rOA8GPlo-74" value="" style="shape=image;html=1;verticalLabelPosition=bottom;labelBackgroundColor=none;verticalAlign=top;imageAspect=1;aspect=fixed;image=data:image/png,iVBORw0KGgoAAAANSUhEUgAAADAAAAAwCAYAAABXAvmHAAAABmJLR0QA/wD/AP+gvaeTAAADXUlEQVRoge2Yy2sTURTGf3cmTUxtWl8oKmrrC0Sogi9ciK3t3oUIirqtXSg+/gld6cJFW1ci/gWuLVXcKBZUUFQUi1QRpfiqNibpzHGRJp3We2cmyUyjkA8Gcicn53xnvnPOvRlooIEGGjBBBrgkg1ytN4+qMENeZq7YklBROZJBpKLA/dHEtqJwUk8kYvHanILODli1pLj+/A2evYPJbOShok+gOQU9OyHpcb1mOaxog+EnMJUDQASlVGVlp0MkJSSDXC4vOjvmki8hmYDO9tn1EFdEau+DmhWQIa4gXCjfKJWNDiuXelfnuY4AF2uJH4UCL6GqUhCEsVqD15yAOs11FP3lG5+/mY0/ffWuzql+rtUcv1YHJZT3gUwaujr/7oPcNAw/hmy+GPif3Qcms8Vp82ECCk7xej8xh3yUiGcfmMrBg1exuJ6P/34njg0yRJ8M4s5cZ+vNpyrIAGdkgDP15tFAnAicxSNdLGKq5aaCwwLJhSAFFBBus/jnye67/PYzDJxCKps5DhxdQPIATSiO8CtzLMgweB8Q6QVIpV12HJjSmriOYnR4MbYNu3p++robvdOC68Lunl9Ytv4I9fR+M7msBUp6gRt+/gIVEDgIkFnmGG3yv4uVaDcFn+kSyaJNLmeuXk+sQ0H+fBO4t691C7AWoHWJa7Qr5NUccn5IzCQ57ZOAJ9bqkf2tm/38+SYgrnSVPodRIFGBAvlwCoAzy0EH3yk0srflFnAikFWcUOpW98PJU6avfRVQcCB6RhVCqlRgeFfbJst23gBs3J5jxdqC0cnL0TQ/vtis25pndbv/kfnjWJLx10kySx227TG/pZj40MTb5ykAHLE39T76/lZnZ1TAst1Q9Q+eHkgE94Adoonnx7Qs16iCMYHS+EylXVJp8wQCKOQqGKNNwU08P64lRS46mBVAAuc/gDOtcJzwCpRsHEfhOuFUEKTbzFODO3vaNgqsB//5D7NPH8AOsQ94VfLbzObFXndvb1uHzkabQMJyy5IFKeBNIBHiD6rtsamkD1xxtWWkDSmemnt6vzmYVRW2AC8epcMbFx/qX+ciUw/4zt66QPSctAqMZZ0N8bKpCu26m//9WwlTAu8XlEU4jOtuahMQ6DP9oE4YV0r11ZtEAw00EAP+APdOFb9kZ0v3AAAAAElFTkSuQmCC;spacing=0;" parent="nUBrmkig5sr9rOA8GPlo-71" vertex="1"><mxGeometry x="10" y="40" width="19" height="19" as="geometry"/></mxCell><mxCell id="nUBrmkig5sr9rOA8GPlo-75" value="" style="shape=image;html=1;verticalLabelPosition=bottom;labelBackgroundColor=none;verticalAlign=top;imageAspect=1;aspect=fixed;image=data:image/png,iVBORw0KGgoAAAANSUhEUgAAAEAAAABACAYAAACqaXHeAAAABmJLR0QA/wD/AP+gvaeTAAAEl0lEQVR4nO2aXWgcVRTHf3c3mw/TJLIt9MOqGLQvIigorZiaCqJpFCQkqdA+mAcFoWDqk6Ev+iTSlz6ZUl8Mgi2xG7FYE0FtTVuN+lZoRdS0Vmw03x+Yj92d2evDZLO72dnMzN2dmcTMDxZm7tw558x/7z3nzt6FgICAgICATYtQuamxufUEiGNAZI1uN2VINl2+0PebWmgGDc0v7wmjfwk8sEa3JHBysD/2llP7IbWwRCdrPzxAvUiJNjX7GcJSb2Pth2c5lmMq9hUFoNxOJwEVivYzNoQ9X9iMaTVlKjcBCaA8UlbGV+fP5lzo+fgTes6cUzSbj5Qk0hP1tVcOc+RQS871Ay+0F2VfaQQIycmySFmyveXFopzbQRfhGMjhXTu309iwr+T2lUbAtwOxLinlEvB2iePJ42p/76/Ag1JK6YZ90ypgM/NuJApWJNMpYDPzbiQKViRTARxk3g1DoYpkmQM6DrfTceRQ6SPyADsVSXUd8L9h0wtgOQV6zpwr6cJmvWE6AqQk4XUgbiMhbtZuKkB69eVuSF4ih2VIxsyu2HodlsNd74DMrPrq38tcvNlVZHDFs3BHsjiSWSi2fnRr5XiwP7bmM66fJBhtgrqnPHdrKUBjc+uJZ98cPn76/KR7UZRvh7r9oM2456MANkaA6NQ0GYldmnUpBAFbXwIRhvhfLvkojJ0pUA6Q1F15GYOax6CqHvR50NwSuTD+5oBQBUQPGsfxO/6E4IvXNNEmCNcYxz4Mf/BTgIp7oHZv5jyxqUbAcuLLdr+pRkDNE1B5X+bcpwQIfggQuguiz+e2+fTtgx8CbD0I4ercNp8qAHgtQMVuqHk8v92nBAiqGyNSN1ZuUndwUwi2tWD6/lW7D7Y8mts29wMsuv9CqibA7FWoexJmv7d/T+1eo/SZUfVQ7rnUYPprpdCcoibA1IDxsUt4C0Sfs99/8gtIjDqPSwFvckD1IxCqstd3/gbMDbkbTxaqm6POmBvKf6i7n8kvh9ocTPR5ElIa/5bCVfWrGiSM94K+4GkYagJEthnfXuX9al5FOP/e6W88yfqrURNgR4cxhHe+CkJhFlXsBpG1+7b0B8xcVAqlWBQEECCW/x2jzRolyymVWcM/tQhjvSBTzu2UAIWvT8LIaah+GBZuqHnNnv8Tn4E2rWanBKhVAW0KZq+oecye/3M/wr/X1OyUCO+rQHr+J8Zg8oLn7lfjvQCV9UbeGDsLMum5+9V4L0AkCpOfQ+Jvz12b4c1KMJtxF1Z6Rfxib0cAHQiDsTcQCTv/d63UID4tlSqmpW0dlsYzCiRTOWpYvq9bCyAZRbAL4NZIgj33Ovvzp9Rg5ucUKdPN6dJzeypnZ99ynlnmACHkSr37sH/KcUDxaenZwwP0Xc/+cVVetupvKUAK2Z0+Hrq+wPEP/uGX20vubZUpkExJfp+I8+7FUX76c36lXaRCp6zutTWhn25uOyXg9SJi9IPuwf7YUatOtsrg/Gj0DYS0VHMd0S0WJjrtdHSU0g80tTdIIY8i2A/sYLk6rAN0jIR3JSRT718a+PQ7vwMKCAgICAjYAPwH98lSOLdeVvMAAAAASUVORK5CYII=;spacing=0;" parent="nUBrmkig5sr9rOA8GPlo-71" vertex="1"><mxGeometry x="40" y="41.75" width="17" height="17" as="geometry"/></mxCell></root></mxGraphModel></diagram><diagram name="Judging+Learning" id="9AE-kK-5XAzMM1lh4QOR"><mxGraphModel dx="946" dy="672" grid="1" gridSize="10" guides="1" tooltips="1" connect="1" arrows="1" fold="1" page="1" pageScale="1" pageWidth="640" pageHeight="420" background="none" math="0" shadow="0"><root><mxCell id="B29hNIKYiQ5LC-AWj-gK-0"/><mxCell id="B29hNIKYiQ5LC-AWj-gK-1" parent="B29hNIKYiQ5LC-AWj-gK-0"/><mxCell id="KHMOXzPkpy2jXdSMmZce-38" value="" style="rounded=0;whiteSpace=wrap;html=1;fillColor=#f5f5f5;strokeColor=#666666;fontColor=#333333;" parent="B29hNIKYiQ5LC-AWj-gK-1" vertex="1"><mxGeometry x="283" y="22" width="200" height="248" as="geometry"/></mxCell><mxCell id="B29hNIKYiQ5LC-AWj-gK-5" value="&lt;div style=&quot;text-align: center&quot;&gt;&lt;b&gt;Observations&lt;/b&gt;&lt;/div&gt;&lt;ul style=&quot;margin-left: -20px ; font-size: 10px&quot;&gt;&lt;li style=&quot;line-height: 120%&quot;&gt;Individual&lt;/li&gt;&lt;ul style=&quot;margin-left: -30px&quot;&gt;&lt;li&gt;Storage&lt;/li&gt;&lt;li&gt;Comfort&lt;/li&gt;&lt;li&gt;Payoff&lt;/li&gt;&lt;/ul&gt;&lt;li&gt;Shared&lt;/li&gt;&lt;ul style=&quot;margin-left: -30px&quot;&gt;&lt;li&gt;Hour&lt;/li&gt;&lt;li&gt;Available Energy&lt;/li&gt;&lt;li&gt;Equity&lt;/li&gt;&lt;li&gt;Energy Waste&lt;/li&gt;&lt;li&gt;Autonomy&lt;/li&gt;&lt;li&gt;Exclusion&lt;/li&gt;&lt;li&gt;Well-Being&lt;/li&gt;&lt;li&gt;Over-Consumption&lt;/li&gt;&lt;/ul&gt;&lt;/ul&gt;" style="text;html=1;strokeColor=#000000;fillColor=#F5F5F5;align=left;verticalAlign=middle;whiteSpace=wrap;rounded=0;labelBackgroundColor=none;dashed=1;" parent="B29hNIKYiQ5LC-AWj-gK-1" vertex="1"><mxGeometry x="23" y="224" width="120" height="190" as="geometry"/></mxCell><mxCell id="B29hNIKYiQ5LC-AWj-gK-6" value="&lt;div style=&quot;text-align: center&quot;&gt;&lt;span&gt;&lt;b&gt;Action&lt;/b&gt;&lt;/span&gt;&lt;/div&gt;&lt;span style=&quot;font-size: 10px&quot;&gt;1 vector of parameters&lt;br&gt;&lt;/span&gt;&lt;ul style=&quot;margin-left: -20px ; font-size: 10px&quot;&gt;&lt;li&gt;Consume from micro-grid&lt;/li&gt;&lt;li&gt;Consume from storage&lt;/li&gt;&lt;li&gt;&lt;span&gt;Store energy&lt;/span&gt;&lt;/li&gt;&lt;li&gt;&lt;span&gt;Give energy&lt;/span&gt;&lt;br&gt;&lt;/li&gt;&lt;li&gt;Buy energy&lt;/li&gt;&lt;li&gt;Sell energy&lt;/li&gt;&lt;/ul&gt;" style="text;html=1;strokeColor=#000000;fillColor=#F5F5F5;align=left;verticalAlign=middle;whiteSpace=wrap;rounded=0;labelBackgroundColor=none;dashed=1;" parent="B29hNIKYiQ5LC-AWj-gK-1" vertex="1"><mxGeometry x="503" y="160" width="120" height="150" as="geometry"/></mxCell><mxCell id="B29hNIKYiQ5LC-AWj-gK-22" value="Learning Agents" style="text;html=1;strokeColor=none;fillColor=none;align=center;verticalAlign=middle;whiteSpace=wrap;rounded=0;labelBackgroundColor=#CCCCCC;" parent="B29hNIKYiQ5LC-AWj-gK-1" vertex="1"><mxGeometry x="328" y="2" width="110" height="20" as="geometry"/></mxCell><mxCell id="KHMOXzPkpy2jXdSMmZce-0" value="" style="group" parent="B29hNIKYiQ5LC-AWj-gK-1" vertex="1" connectable="0"><mxGeometry x="396.78" y="30" width="70" height="70" as="geometry"/></mxCell><mxCell id="B29hNIKYiQ5LC-AWj-gK-13" value="" style="rounded=1;whiteSpace=wrap;html=1;labelBackgroundColor=none;fillColor=#ffe6cc;strokeColor=#d79b00;" parent="KHMOXzPkpy2jXdSMmZce-0" vertex="1"><mxGeometry width="70" height="70" as="geometry"/></mxCell><mxCell id="B29hNIKYiQ5LC-AWj-gK-14" value="School" style="shape=image;html=1;verticalLabelPosition=top;labelBackgroundColor=none;verticalAlign=bottom;imageAspect=1;aspect=fixed;image=https://img.icons8.com/dusk/64/000000/school.png;labelPosition=center;align=center;" parent="KHMOXzPkpy2jXdSMmZce-0" vertex="1"><mxGeometry x="26" y="18.75" width="21.25" height="21.25" as="geometry"/></mxCell><mxCell id="B29hNIKYiQ5LC-AWj-gK-15" value="" style="shape=image;html=1;verticalLabelPosition=bottom;labelBackgroundColor=none;verticalAlign=top;imageAspect=1;aspect=fixed;image=https://img.icons8.com/color/48/000000/solar-panel.png;spacing=0;" parent="KHMOXzPkpy2jXdSMmZce-0" vertex="1"><mxGeometry x="10" y="40" width="18.5" height="18.5" as="geometry"/></mxCell><mxCell id="B29hNIKYiQ5LC-AWj-gK-16" value="" style="shape=image;html=1;verticalLabelPosition=bottom;labelBackgroundColor=none;verticalAlign=top;imageAspect=1;aspect=fixed;image=https://img.icons8.com/cotton/64/000000/car-battery--v1.png;spacing=0;" parent="KHMOXzPkpy2jXdSMmZce-0" vertex="1"><mxGeometry x="40" y="41.75" width="16.75" height="16.75" as="geometry"/></mxCell><mxCell id="KHMOXzPkpy2jXdSMmZce-7" value="" style="group" parent="B29hNIKYiQ5LC-AWj-gK-1" vertex="1" connectable="0"><mxGeometry x="295.6" y="30" width="70" height="70" as="geometry"/></mxCell><mxCell id="KHMOXzPkpy2jXdSMmZce-2" value="" style="rounded=1;whiteSpace=wrap;html=1;labelBackgroundColor=none;fillColor=#ffe6cc;strokeColor=#d79b00;" parent="KHMOXzPkpy2jXdSMmZce-7" vertex="1"><mxGeometry width="70" height="70" as="geometry"/></mxCell><mxCell id="KHMOXzPkpy2jXdSMmZce-4" value="" style="shape=image;html=1;verticalLabelPosition=bottom;labelBackgroundColor=none;verticalAlign=top;imageAspect=1;aspect=fixed;image=https://img.icons8.com/color/48/000000/solar-panel.png;spacing=0;" parent="KHMOXzPkpy2jXdSMmZce-7" vertex="1"><mxGeometry x="10" y="40" width="18.5" height="18.5" as="geometry"/></mxCell><mxCell id="KHMOXzPkpy2jXdSMmZce-5" value="" style="shape=image;html=1;verticalLabelPosition=bottom;labelBackgroundColor=none;verticalAlign=top;imageAspect=1;aspect=fixed;image=https://img.icons8.com/cotton/64/000000/car-battery--v1.png;spacing=0;" parent="KHMOXzPkpy2jXdSMmZce-7" vertex="1"><mxGeometry x="40" y="41.75" width="16.75" height="16.75" as="geometry"/></mxCell><mxCell id="KHMOXzPkpy2jXdSMmZce-6" value="Office" style="shape=image;html=1;verticalLabelPosition=top;labelBackgroundColor=none;verticalAlign=bottom;imageAspect=1;aspect=fixed;image=https://img.icons8.com/dusk/64/000000/client-company--v2.png;labelPosition=center;align=center;" parent="KHMOXzPkpy2jXdSMmZce-7" vertex="1"><mxGeometry x="25" y="20" width="20" height="20" as="geometry"/></mxCell><mxCell id="KHMOXzPkpy2jXdSMmZce-8" value="" style="group" parent="B29hNIKYiQ5LC-AWj-gK-1" vertex="1" connectable="0"><mxGeometry x="305.6" y="40" width="70" height="70" as="geometry"/></mxCell><mxCell id="KHMOXzPkpy2jXdSMmZce-9" value="" style="rounded=1;whiteSpace=wrap;html=1;labelBackgroundColor=none;fillColor=#ffe6cc;strokeColor=#d79b00;" parent="KHMOXzPkpy2jXdSMmZce-8" vertex="1"><mxGeometry width="70" height="70" as="geometry"/></mxCell><mxCell id="KHMOXzPkpy2jXdSMmZce-10" value="" style="shape=image;html=1;verticalLabelPosition=bottom;labelBackgroundColor=none;verticalAlign=top;imageAspect=1;aspect=fixed;image=https://img.icons8.com/color/48/000000/solar-panel.png;spacing=0;" parent="KHMOXzPkpy2jXdSMmZce-8" vertex="1"><mxGeometry x="10" y="40" width="18.5" height="18.5" as="geometry"/></mxCell><mxCell id="KHMOXzPkpy2jXdSMmZce-11" value="" style="shape=image;html=1;verticalLabelPosition=bottom;labelBackgroundColor=none;verticalAlign=top;imageAspect=1;aspect=fixed;image=https://img.icons8.com/cotton/64/000000/car-battery--v1.png;spacing=0;" parent="KHMOXzPkpy2jXdSMmZce-8" vertex="1"><mxGeometry x="40" y="41.75" width="16.75" height="16.75" as="geometry"/></mxCell><mxCell id="KHMOXzPkpy2jXdSMmZce-12" value="Office" style="shape=image;html=1;verticalLabelPosition=top;labelBackgroundColor=none;verticalAlign=bottom;imageAspect=1;aspect=fixed;image=https://img.icons8.com/dusk/64/000000/client-company--v2.png;labelPosition=center;align=center;" parent="KHMOXzPkpy2jXdSMmZce-8" vertex="1"><mxGeometry x="25" y="20" width="20" height="20" as="geometry"/></mxCell><mxCell id="KHMOXzPkpy2jXdSMmZce-13" value="" style="group" parent="B29hNIKYiQ5LC-AWj-gK-1" vertex="1" connectable="0"><mxGeometry x="315.6" y="50" width="70" height="70" as="geometry"/></mxCell><mxCell id="KHMOXzPkpy2jXdSMmZce-14" value="" style="rounded=1;whiteSpace=wrap;html=1;labelBackgroundColor=none;fillColor=#ffe6cc;strokeColor=#d79b00;" parent="KHMOXzPkpy2jXdSMmZce-13" vertex="1"><mxGeometry width="70" height="70" as="geometry"/></mxCell><mxCell id="KHMOXzPkpy2jXdSMmZce-15" value="" style="shape=image;html=1;verticalLabelPosition=bottom;labelBackgroundColor=none;verticalAlign=top;imageAspect=1;aspect=fixed;image=https://img.icons8.com/color/48/000000/solar-panel.png;spacing=0;" parent="KHMOXzPkpy2jXdSMmZce-13" vertex="1"><mxGeometry x="10" y="40" width="18.5" height="18.5" as="geometry"/></mxCell><mxCell id="KHMOXzPkpy2jXdSMmZce-16" value="" style="shape=image;html=1;verticalLabelPosition=bottom;labelBackgroundColor=none;verticalAlign=top;imageAspect=1;aspect=fixed;image=https://img.icons8.com/cotton/64/000000/car-battery--v1.png;spacing=0;" parent="KHMOXzPkpy2jXdSMmZce-13" vertex="1"><mxGeometry x="40" y="41.75" width="16.75" height="16.75" as="geometry"/></mxCell><mxCell id="KHMOXzPkpy2jXdSMmZce-17" value="Office" style="shape=image;html=1;verticalLabelPosition=top;labelBackgroundColor=none;verticalAlign=bottom;imageAspect=1;aspect=fixed;image=https://img.icons8.com/dusk/64/000000/client-company--v2.png;labelPosition=center;align=center;" parent="KHMOXzPkpy2jXdSMmZce-13" vertex="1"><mxGeometry x="25" y="20" width="20" height="20" as="geometry"/></mxCell><mxCell id="KHMOXzPkpy2jXdSMmZce-22" value="" style="group" parent="B29hNIKYiQ5LC-AWj-gK-1" vertex="1" connectable="0"><mxGeometry x="313" y="130.00000000000003" width="105.9" height="94" as="geometry"/></mxCell><mxCell id="B29hNIKYiQ5LC-AWj-gK-8" value="" style="rounded=1;whiteSpace=wrap;html=1;labelBackgroundColor=none;fillColor=#ffe6cc;strokeColor=#d79b00;" parent="KHMOXzPkpy2jXdSMmZce-22" vertex="1"><mxGeometry width="105.9" height="94" as="geometry"/></mxCell><mxCell id="B29hNIKYiQ5LC-AWj-gK-9" value="Household" style="shape=image;html=1;verticalLabelPosition=top;labelBackgroundColor=none;verticalAlign=bottom;imageAspect=1;aspect=fixed;image=https://img.icons8.com/fluent/96/000000/cottage.png;spacing=0;labelPosition=center;align=center;" parent="KHMOXzPkpy2jXdSMmZce-22" vertex="1"><mxGeometry x="34.97249999999997" y="15.949999999999989" width="32.595" height="32.595" as="geometry"/></mxCell><mxCell id="B29hNIKYiQ5LC-AWj-gK-10" value="Solar &lt;br&gt;Panel" style="shape=image;html=1;verticalLabelPosition=bottom;labelBackgroundColor=none;verticalAlign=top;imageAspect=1;aspect=fixed;image=https://img.icons8.com/color/48/000000/solar-panel.png;spacing=0;" parent="KHMOXzPkpy2jXdSMmZce-22" vertex="1"><mxGeometry x="15.89500000000001" y="39" width="19.080000000000002" height="19.080000000000002" as="geometry"/></mxCell><mxCell id="B29hNIKYiQ5LC-AWj-gK-11" value="Storage" style="shape=image;html=1;verticalLabelPosition=bottom;labelBackgroundColor=none;verticalAlign=top;imageAspect=1;aspect=fixed;image=https://img.icons8.com/cotton/64/000000/car-battery--v1.png;spacing=0;" parent="KHMOXzPkpy2jXdSMmZce-22" vertex="1"><mxGeometry x="69.20750000000001" y="48.55000000000001" width="16.695" height="16.695" as="geometry"/></mxCell><mxCell id="KHMOXzPkpy2jXdSMmZce-23" value="" style="group" parent="B29hNIKYiQ5LC-AWj-gK-1" vertex="1" connectable="0"><mxGeometry x="323" y="140.00000000000003" width="105.9" height="94" as="geometry"/></mxCell><mxCell id="KHMOXzPkpy2jXdSMmZce-24" value="" style="rounded=1;whiteSpace=wrap;html=1;labelBackgroundColor=none;fillColor=#ffe6cc;strokeColor=#d79b00;" parent="KHMOXzPkpy2jXdSMmZce-23" vertex="1"><mxGeometry width="105.9" height="94" as="geometry"/></mxCell><mxCell id="KHMOXzPkpy2jXdSMmZce-25" value="Household" style="shape=image;html=1;verticalLabelPosition=top;labelBackgroundColor=none;verticalAlign=bottom;imageAspect=1;aspect=fixed;image=https://img.icons8.com/fluent/96/000000/cottage.png;spacing=0;labelPosition=center;align=center;" parent="KHMOXzPkpy2jXdSMmZce-23" vertex="1"><mxGeometry x="34.97249999999997" y="15.949999999999989" width="32.595" height="32.595" as="geometry"/></mxCell><mxCell id="KHMOXzPkpy2jXdSMmZce-26" value="Solar &lt;br&gt;Panel" style="shape=image;html=1;verticalLabelPosition=bottom;labelBackgroundColor=none;verticalAlign=top;imageAspect=1;aspect=fixed;image=https://img.icons8.com/color/48/000000/solar-panel.png;spacing=0;" parent="KHMOXzPkpy2jXdSMmZce-23" vertex="1"><mxGeometry x="15.89500000000001" y="39" width="19.080000000000002" height="19.080000000000002" as="geometry"/></mxCell><mxCell id="KHMOXzPkpy2jXdSMmZce-27" value="Storage" style="shape=image;html=1;verticalLabelPosition=bottom;labelBackgroundColor=none;verticalAlign=top;imageAspect=1;aspect=fixed;image=https://img.icons8.com/cotton/64/000000/car-battery--v1.png;spacing=0;" parent="KHMOXzPkpy2jXdSMmZce-23" vertex="1"><mxGeometry x="69.20750000000001" y="48.55000000000001" width="16.695" height="16.695" as="geometry"/></mxCell><mxCell id="KHMOXzPkpy2jXdSMmZce-28" value="" style="group" parent="B29hNIKYiQ5LC-AWj-gK-1" vertex="1" connectable="0"><mxGeometry x="333" y="150.00000000000003" width="105.9" height="94" as="geometry"/></mxCell><mxCell id="KHMOXzPkpy2jXdSMmZce-29" value="" style="rounded=1;whiteSpace=wrap;html=1;labelBackgroundColor=none;fillColor=#ffe6cc;strokeColor=#d79b00;" parent="KHMOXzPkpy2jXdSMmZce-28" vertex="1"><mxGeometry width="105.9" height="94" as="geometry"/></mxCell><mxCell id="KHMOXzPkpy2jXdSMmZce-30" value="Household" style="shape=image;html=1;verticalLabelPosition=top;labelBackgroundColor=none;verticalAlign=bottom;imageAspect=1;aspect=fixed;image=https://img.icons8.com/fluent/96/000000/cottage.png;spacing=0;labelPosition=center;align=center;" parent="KHMOXzPkpy2jXdSMmZce-28" vertex="1"><mxGeometry x="34.97249999999997" y="15.949999999999989" width="32.595" height="32.595" as="geometry"/></mxCell><mxCell id="KHMOXzPkpy2jXdSMmZce-31" value="Solar &lt;br&gt;Panel" style="shape=image;html=1;verticalLabelPosition=bottom;labelBackgroundColor=none;verticalAlign=top;imageAspect=1;aspect=fixed;image=https://img.icons8.com/color/48/000000/solar-panel.png;spacing=0;" parent="KHMOXzPkpy2jXdSMmZce-28" vertex="1"><mxGeometry x="15.89500000000001" y="39" width="19.080000000000002" height="19.080000000000002" as="geometry"/></mxCell><mxCell id="KHMOXzPkpy2jXdSMmZce-32" value="Storage" style="shape=image;html=1;verticalLabelPosition=bottom;labelBackgroundColor=none;verticalAlign=top;imageAspect=1;aspect=fixed;image=https://img.icons8.com/cotton/64/000000/car-battery--v1.png;spacing=0;" parent="KHMOXzPkpy2jXdSMmZce-28" vertex="1"><mxGeometry x="69.20750000000001" y="48.55000000000001" width="16.695" height="16.695" as="geometry"/></mxCell><mxCell id="KHMOXzPkpy2jXdSMmZce-33" value="" style="group" parent="B29hNIKYiQ5LC-AWj-gK-1" vertex="1" connectable="0"><mxGeometry x="343" y="160.00000000000003" width="105.9" height="94" as="geometry"/></mxCell><mxCell id="KHMOXzPkpy2jXdSMmZce-34" value="" style="rounded=1;whiteSpace=wrap;html=1;labelBackgroundColor=none;fillColor=#ffe6cc;strokeColor=#d79b00;" parent="KHMOXzPkpy2jXdSMmZce-33" vertex="1"><mxGeometry width="105.9" height="94" as="geometry"/></mxCell><mxCell id="KHMOXzPkpy2jXdSMmZce-35" value="Household" style="shape=image;html=1;verticalLabelPosition=top;labelBackgroundColor=none;verticalAlign=bottom;imageAspect=1;aspect=fixed;image=https://img.icons8.com/fluent/96/000000/cottage.png;spacing=0;labelPosition=center;align=center;" parent="KHMOXzPkpy2jXdSMmZce-33" vertex="1"><mxGeometry x="34.97249999999997" y="15.949999999999989" width="32.595" height="32.595" as="geometry"/></mxCell><mxCell id="KHMOXzPkpy2jXdSMmZce-36" value="Solar &lt;br&gt;Panel" style="shape=image;html=1;verticalLabelPosition=bottom;labelBackgroundColor=none;verticalAlign=top;imageAspect=1;aspect=fixed;image=https://img.icons8.com/color/48/000000/solar-panel.png;spacing=0;" parent="KHMOXzPkpy2jXdSMmZce-33" vertex="1"><mxGeometry x="15.89500000000001" y="39" width="19.080000000000002" height="19.080000000000002" as="geometry"/></mxCell><mxCell id="KHMOXzPkpy2jXdSMmZce-37" value="Storage" style="shape=image;html=1;verticalLabelPosition=bottom;labelBackgroundColor=none;verticalAlign=top;imageAspect=1;aspect=fixed;image=https://img.icons8.com/cotton/64/000000/car-battery--v1.png;spacing=0;" parent="KHMOXzPkpy2jXdSMmZce-33" vertex="1"><mxGeometry x="69.20750000000001" y="48.55000000000001" width="16.695" height="16.695" as="geometry"/></mxCell><mxCell id="KHMOXzPkpy2jXdSMmZce-40" value="" style="group" parent="B29hNIKYiQ5LC-AWj-gK-1" vertex="1" connectable="0"><mxGeometry x="215.76" y="319.99999999999994" width="249.67999999999995" height="89.24999999999989" as="geometry"/></mxCell><mxCell id="B29hNIKYiQ5LC-AWj-gK-39" value="" style="rounded=1;fillColor=#F5F5F5;strokeColor=#6c8ebf;whiteSpace=wrap;html=1;" parent="KHMOXzPkpy2jXdSMmZce-40" vertex="1"><mxGeometry width="249.18" height="89" as="geometry"/></mxCell><mxCell id="B29hNIKYiQ5LC-AWj-gK-40" value="" style="shape=manualInput;flipV=0;flipH=1;rotation=-90;size=16;fillColor=#F5F5F5;strokeColor=#6c8ebf;whiteSpace=wrap;html=1;" parent="KHMOXzPkpy2jXdSMmZce-40" vertex="1"><mxGeometry x="174.42999999999995" y="13.999999999999886" width="28" height="122.5" as="geometry"/></mxCell><mxCell id="B29hNIKYiQ5LC-AWj-gK-41" value="Environment" style="text;strokeColor=none;fillColor=none;align=center;verticalAlign=middle;rounded=0;fontSize=16;whiteSpace=wrap;html=1;" parent="KHMOXzPkpy2jXdSMmZce-40" vertex="1"><mxGeometry x="144.17999999999995" y="64.74999999999989" width="92" height="20" as="geometry"/></mxCell><mxCell id="B29hNIKYiQ5LC-AWj-gK-3" value="National Grid" style="shape=image;html=1;verticalLabelPosition=top;labelBackgroundColor=none;verticalAlign=bottom;imageAspect=1;aspect=fixed;image=https://img.icons8.com/ios-filled/100/000000/transmission-tower.png;labelPosition=center;align=center;" parent="KHMOXzPkpy2jXdSMmZce-40" vertex="1"><mxGeometry x="20" y="23.75" width="51" height="51" as="geometry"/></mxCell><mxCell id="B29hNIKYiQ5LC-AWj-gK-4" style="edgeStyle=none;rounded=0;orthogonalLoop=1;jettySize=auto;html=1;endArrow=none;endFill=0;" parent="KHMOXzPkpy2jXdSMmZce-40" source="B29hNIKYiQ5LC-AWj-gK-27" target="B29hNIKYiQ5LC-AWj-gK-3" edge="1"><mxGeometry relative="1" as="geometry"/></mxCell><mxCell id="B29hNIKYiQ5LC-AWj-gK-38" value="" style="group" parent="KHMOXzPkpy2jXdSMmZce-40" vertex="1" connectable="0"><mxGeometry x="94.18" y="10" width="50" height="50" as="geometry"/></mxCell><mxCell id="B29hNIKYiQ5LC-AWj-gK-27" value="" style="ellipse;shape=doubleEllipse;whiteSpace=wrap;html=1;labelBackgroundColor=none;fillColor=#dae8fc;strokeColor=#6c8ebf;" parent="B29hNIKYiQ5LC-AWj-gK-38" vertex="1"><mxGeometry width="50" height="50" as="geometry"/></mxCell><mxCell id="B29hNIKYiQ5LC-AWj-gK-29" value="Smart Grid" style="text;html=1;strokeColor=none;fillColor=none;align=center;verticalAlign=middle;whiteSpace=wrap;rounded=0;labelBackgroundColor=none;" parent="B29hNIKYiQ5LC-AWj-gK-38" vertex="1"><mxGeometry x="5" y="15.5" width="40" height="20" as="geometry"/></mxCell><mxCell id="KHMOXzPkpy2jXdSMmZce-41" value="" style="group" parent="B29hNIKYiQ5LC-AWj-gK-1" vertex="1" connectable="0"><mxGeometry x="353" y="170.00000000000003" width="105.9" height="94" as="geometry"/></mxCell><mxCell id="KHMOXzPkpy2jXdSMmZce-42" value="" style="rounded=1;whiteSpace=wrap;html=1;labelBackgroundColor=none;fillColor=#ffe6cc;strokeColor=#d79b00;" parent="KHMOXzPkpy2jXdSMmZce-41" vertex="1"><mxGeometry width="105.9" height="94" as="geometry"/></mxCell><mxCell id="KHMOXzPkpy2jXdSMmZce-43" value="Household" style="shape=image;html=1;verticalLabelPosition=top;labelBackgroundColor=none;verticalAlign=bottom;imageAspect=1;aspect=fixed;image=https://img.icons8.com/fluent/96/000000/cottage.png;spacing=0;labelPosition=center;align=center;" parent="KHMOXzPkpy2jXdSMmZce-41" vertex="1"><mxGeometry x="34.97249999999997" y="15.949999999999989" width="32.595" height="32.595" as="geometry"/></mxCell><mxCell id="KHMOXzPkpy2jXdSMmZce-44" value="Solar &lt;br&gt;Panel" style="shape=image;html=1;verticalLabelPosition=bottom;labelBackgroundColor=none;verticalAlign=top;imageAspect=1;aspect=fixed;image=https://img.icons8.com/color/48/000000/solar-panel.png;spacing=0;" parent="KHMOXzPkpy2jXdSMmZce-41" vertex="1"><mxGeometry x="15.89500000000001" y="39" width="19.080000000000002" height="19.080000000000002" as="geometry"/></mxCell><mxCell id="KHMOXzPkpy2jXdSMmZce-45" value="Storage" style="shape=image;html=1;verticalLabelPosition=bottom;labelBackgroundColor=none;verticalAlign=top;imageAspect=1;aspect=fixed;image=https://img.icons8.com/cotton/64/000000/car-battery--v1.png;spacing=0;" parent="KHMOXzPkpy2jXdSMmZce-41" vertex="1"><mxGeometry x="69.20750000000001" y="48.55000000000001" width="16.695" height="16.695" as="geometry"/></mxCell><mxCell id="KHMOXzPkpy2jXdSMmZce-47" style="edgeStyle=orthogonalEdgeStyle;rounded=0;orthogonalLoop=1;jettySize=auto;html=1;entryX=0;entryY=0.25;entryDx=0;entryDy=0;labelBackgroundColor=none;strokeWidth=2;fontColor=#F5793A;strokeColor=#85C0F9;" parent="B29hNIKYiQ5LC-AWj-gK-1" source="B29hNIKYiQ5LC-AWj-gK-31" target="KHMOXzPkpy2jXdSMmZce-38" edge="1"><mxGeometry relative="1" as="geometry"><Array as="points"><mxPoint x="163" y="84"/><mxPoint x="163" y="84"/></Array></mxGeometry></mxCell><mxCell id="KHMOXzPkpy2jXdSMmZce-46" style="edgeStyle=orthogonalEdgeStyle;rounded=0;orthogonalLoop=1;jettySize=auto;html=1;labelBackgroundColor=none;strokeWidth=2;fontColor=#F5793A;strokeColor=#F5793A;" parent="B29hNIKYiQ5LC-AWj-gK-1" source="B29hNIKYiQ5LC-AWj-gK-39" target="KHMOXzPkpy2jXdSMmZce-38" edge="1"><mxGeometry relative="1" as="geometry"><Array as="points"><mxPoint x="143" y="364"/><mxPoint x="143" y="210"/></Array></mxGeometry></mxCell><mxCell id="KHMOXzPkpy2jXdSMmZce-48" style="edgeStyle=orthogonalEdgeStyle;rounded=0;orthogonalLoop=1;jettySize=auto;html=1;labelBackgroundColor=none;strokeWidth=2;fontColor=#F5793A;strokeColor=#F5793A;" parent="B29hNIKYiQ5LC-AWj-gK-1" source="B29hNIKYiQ5LC-AWj-gK-39" target="B29hNIKYiQ5LC-AWj-gK-31" edge="1"><mxGeometry relative="1" as="geometry"><Array as="points"><mxPoint x="143" y="364"/><mxPoint x="143" y="210"/><mxPoint x="88" y="210"/></Array></mxGeometry></mxCell><mxCell id="KHMOXzPkpy2jXdSMmZce-39" style="edgeStyle=orthogonalEdgeStyle;rounded=0;orthogonalLoop=1;jettySize=auto;html=1;entryX=1;entryY=0.5;entryDx=0;entryDy=0;labelBackgroundColor=none;strokeWidth=2;fontColor=#A95AA1;strokeColor=#A95AA1;" parent="B29hNIKYiQ5LC-AWj-gK-1" source="KHMOXzPkpy2jXdSMmZce-38" target="B29hNIKYiQ5LC-AWj-gK-39" edge="1"><mxGeometry relative="1" as="geometry"><Array as="points"><mxPoint x="503" y="146"/><mxPoint x="503" y="365"/><mxPoint x="465" y="365"/></Array></mxGeometry></mxCell><mxCell id="KHMOXzPkpy2jXdSMmZce-50" value="" style="group" parent="B29hNIKYiQ5LC-AWj-gK-1" vertex="1" connectable="0"><mxGeometry x="23" y="22" width="110" height="88" as="geometry"/></mxCell><mxCell id="B29hNIKYiQ5LC-AWj-gK-33" value="Judging Agents" style="text;html=1;strokeColor=none;fillColor=none;align=center;verticalAlign=middle;whiteSpace=wrap;rounded=0;labelBackgroundColor=#CCCCCC;" parent="KHMOXzPkpy2jXdSMmZce-50" vertex="1"><mxGeometry width="110.00000000000001" height="21.333333333333332" as="geometry"/></mxCell><mxCell id="B29hNIKYiQ5LC-AWj-gK-31" value="" style="rounded=0;whiteSpace=wrap;html=1;fillColor=#f5f5f5;strokeColor=#666666;fontColor=#333333;" parent="KHMOXzPkpy2jXdSMmZce-50" vertex="1"><mxGeometry x="11" y="21.333333333333332" width="88" height="66.66666666666667" as="geometry"/></mxCell><mxCell id="0dP18QePjByt_-lthVMO-3" value="" style="shape=image;aspect=fixed;image=data:image/svg+xml,PD94bWwgdmVyc2lvbj0iMS4wIiBlbmNvZGluZz0idXRmLTgiPz48c3ZnIHZlcnNpb249IjEuMSIgaWQ9IkxheWVyXzEiIHhtbG5zPSJodHRwOi8vd3d3LnczLm9yZy8yMDAwL3N2ZyIgeG1sbnM6eGxpbms9Imh0dHA6Ly93d3cudzMub3JnLzE5OTkveGxpbmsiIGZpbGw9IiNBNjgwQjgiIHg9IjBweCIgeT0iMHB4IiB2aWV3Qm94PSIwIDAgMTIyLjg4IDEwMC4zOSIgc3R5bGU9ImVuYWJsZS1iYWNrZ3JvdW5kOm5ldyAwIDAgMTIyLjg4IDEwMC4zOSIgeG1sOnNwYWNlPSJwcmVzZXJ2ZSI+PGc+PHBhdGggZD0iTTExOS42Niw5NC45OGwtMS4zMy0xLjUzTDExMiw5OS43OGwtMC4wMS0wLjAxYy0wLjcxLDAuNzEtMS44NiwwLjcyLTIuNTcsMC4wMmwtNi40NS02LjI3bC02LjMyLDYuMDcgYy0wLjY5LDAuNzEtMS44MywwLjc1LTIuNTYsMC4wN2wtNi43LTYuMTlsLTYuMDgsNi4yNmMtMC4wNCwwLjA0LTAuMDcsMC4wOC0wLjExLDAuMTJjLTAuNzIsMC43Mi0xLjg4LDAuNzItMi42LDBsLTYuMzgtNi4zOCBsLTYuNTgsNi4yN2wwLDBjLTAuNzIsMC42OC0xLjg2LDAuNjctMi41Ni0wLjA0bC02LjI2LTYuMzJsLTEuMywxLjVjLTAuMzMsMC40NS0wLjg3LDAuNzQtMS40OCwwLjc0Yy0xLjAyLDAtMS44NC0wLjgzLTEuODQtMS44NCBWNjkuMjZjMC40MiwwLjA3LDAuODUsMC4xMSwxLjI4LDAuMTFjMC44MSwwLjAxLDEuNjItMC4wOSwyLjQxLTAuMzF2MjBjMC42NS0wLjM0LDEuNDYtMC4yNywyLjA1LDAuMjQgYzAuMDQsMC4wMywwLjA3LDAuMDYsMC4xLDAuMWwwLDBsNi4zOCw2LjQ1bDYuNTctNi4yNmMwLjczLTAuNjksMS44Ni0wLjY3LDIuNTYsMC4wM2wwLjAxLTAuMDFsNi4zMyw2LjMzbDYuMTMtNi4zMSBjMC43LTAuNzEsMS44My0wLjc0LDIuNTYtMC4wN2wwLDBsNi43NSw2LjIzbDYuNC02LjE0YzAuNzItMC42OSwxLjg2LTAuNjgsMi41NiwwLjAybDYuNCw2LjIzbDYuNDQtNi40NCBjMC41NS0wLjU2LDEuNC0wLjY4LDIuMDgtMC4zNmwwLDBWMzkuMkg4NS4yN2MwLjEyLTAuNTksMC4xNy0xLjE5LDAuMTctMS43OWMtMC4wMS0wLjYzLTAuMDktMS4yNy0wLjIzLTEuODloMzUuODQgYzEuMDIsMCwxLjg0LDAuODIsMS44NCwxLjg0djU2LjQyaC0wLjAxYzAsMC41MS0wLjIxLDEuMDItMC42NCwxLjM5QzEyMS40OCw5NS44MywxMjAuMzIsOTUuNzUsMTE5LjY2LDk0Ljk4TDExOS42Niw5NC45OCBMMTE5LjY2LDk0Ljk4eiBNNzAuMTMsNzguODFjLTAuODIsMC0xLjQ5LTAuNjctMS40OS0xLjQ5YzAtMC44MiwwLjY3LTEuNDksMS40OS0xLjQ5aDEzLjM1YzAuODIsMCwxLjQ5LDAuNjcsMS40OSwxLjQ5IGMwLDAuODItMC42NywxLjQ5LTEuNDksMS40OUg3MC4xM0w3MC4xMyw3OC44MXogTTcwLjEzLDYwLjc3Yy0wLjgyLDAtMS40OS0wLjY3LTEuNDktMS40OWMwLTAuODIsMC42Ny0xLjQ5LDEuNDktMS40OWgzOS41OSBjMC44MiwwLDEuNDksMC42NywxLjQ5LDEuNDljMCwwLjgyLTAuNjcsMS40OS0xLjQ5LDEuNDlINzAuMTNMNzAuMTMsNjAuNzd6IE03MC4xMyw2OS44NGMtMC44MiwwLTEuNDktMC42Ny0xLjQ5LTEuNDkgYzAtMC44MiwwLjY3LTEuNDksMS40OS0xLjQ5aDMzLjg1YzAuODIsMCwxLjQ5LDAuNjcsMS40OSwxLjQ5YzAsMC44Mi0wLjY3LDEuNDktMS40OSwxLjQ5SDcwLjEzTDcwLjEzLDY5Ljg0eiBNNjIuNywxNy4xMSBMNjIuNywxNy4xMWMxLjk5LDEuOTksMi4wMyw1LjIsMC4wOSw3LjE0bC0xLjA1LDEuMDVsOC40Myw4LjI4TDQ4Ljg2LDU0LjEybC04LjIxLTguNUw4LjY2LDc3LjYxYy0xLjk0LDEuOTQtNS4xNSwxLjktNy4xNC0wLjA5IGwwLDBjLTEuOTktMS45OS0yLjAzLTUuMi0wLjA5LTcuMTRsMzIuMTEtMzIuMTFsLTYuNDMtNi42OGwyMC4xNC0yMC41NGw3LjIxLDcuMDdsMS4xMS0xLjExQzU3LjUsMTUuMDksNjAuNzEsMTUuMTMsNjIuNywxNy4xMSBMNjIuNywxNy4xMUw2Mi43LDE3LjExeiBNNDYuMzgsMS4yMUw0Ni4zOCwxLjIxYzEuNTgsMS41OCwxLjYxLDQuMTQsMC4wNyw1LjY4bC0yMy41LDIzLjVjLTEuNTQsMS41NC00LjEsMS41MS01LjY4LTAuMDdsMCwwIGMtMS41OC0xLjU4LTEuNjEtNC4xNC0wLjA3LTUuNjhsMjMuNS0yMy41QzQyLjI0LTAuNDEsNDQuOC0wLjM3LDQ2LjM4LDEuMjFMNDYuMzgsMS4yMUw0Ni4zOCwxLjIxeiBNNzkuNzgsMzQuNjFMNzkuNzgsMzQuNjEgYzEuNTgsMS41OCwxLjYxLDQuMTQsMC4wNyw1LjY4bC0yMy41LDIzLjVjLTEuNTQsMS41NC00LjEsMS41MS01LjY4LTAuMDdsMCwwYy0xLjU4LTEuNTgtMS42MS00LjE0LTAuMDctNS42OGwyMy41LTIzLjUgQzc1LjY1LDMzLDc4LjIsMzMuMDMsNzkuNzgsMzQuNjFMNzkuNzgsMzQuNjFMNzkuNzgsMzQuNjF6Ii8+PC9nPjwvc3ZnPgo=;" parent="KHMOXzPkpy2jXdSMmZce-50" vertex="1"><mxGeometry x="16.240000000000002" y="27.289999999999992" width="24.53" height="20" as="geometry"/></mxCell><mxCell id="0dP18QePjByt_-lthVMO-0" value="" style="shape=image;aspect=fixed;image=data:image/svg+xml,PD94bWwgdmVyc2lvbj0iMS4wIiBlbmNvZGluZz0idXRmLTgiPz48c3ZnIHZlcnNpb249IjEuMSIgaWQ9IkxheWVyXzEiIHhtbG5zPSJodHRwOi8vd3d3LnczLm9yZy8yMDAwL3N2ZyIgeG1sbnM6eGxpbms9Imh0dHA6Ly93d3cudzMub3JnLzE5OTkveGxpbmsiIGZpbGw9IiNENkI2NTYiIHg9IjBweCIgeT0iMHB4IiB2aWV3Qm94PSIwIDAgMTIyLjg4IDEwMC4zOSIgc3R5bGU9ImVuYWJsZS1iYWNrZ3JvdW5kOm5ldyAwIDAgMTIyLjg4IDEwMC4zOSIgeG1sOnNwYWNlPSJwcmVzZXJ2ZSI+PGc+PHBhdGggZD0iTTExOS42Niw5NC45OGwtMS4zMy0xLjUzTDExMiw5OS43OGwtMC4wMS0wLjAxYy0wLjcxLDAuNzEtMS44NiwwLjcyLTIuNTcsMC4wMmwtNi40NS02LjI3bC02LjMyLDYuMDcgYy0wLjY5LDAuNzEtMS44MywwLjc1LTIuNTYsMC4wN2wtNi43LTYuMTlsLTYuMDgsNi4yNmMtMC4wNCwwLjA0LTAuMDcsMC4wOC0wLjExLDAuMTJjLTAuNzIsMC43Mi0xLjg4LDAuNzItMi42LDBsLTYuMzgtNi4zOCBsLTYuNTgsNi4yN2wwLDBjLTAuNzIsMC42OC0xLjg2LDAuNjctMi41Ni0wLjA0bC02LjI2LTYuMzJsLTEuMywxLjVjLTAuMzMsMC40NS0wLjg3LDAuNzQtMS40OCwwLjc0Yy0xLjAyLDAtMS44NC0wLjgzLTEuODQtMS44NCBWNjkuMjZjMC40MiwwLjA3LDAuODUsMC4xMSwxLjI4LDAuMTFjMC44MSwwLjAxLDEuNjItMC4wOSwyLjQxLTAuMzF2MjBjMC42NS0wLjM0LDEuNDYtMC4yNywyLjA1LDAuMjQgYzAuMDQsMC4wMywwLjA3LDAuMDYsMC4xLDAuMWwwLDBsNi4zOCw2LjQ1bDYuNTctNi4yNmMwLjczLTAuNjksMS44Ni0wLjY3LDIuNTYsMC4wM2wwLjAxLTAuMDFsNi4zMyw2LjMzbDYuMTMtNi4zMSBjMC43LTAuNzEsMS44My0wLjc0LDIuNTYtMC4wN2wwLDBsNi43NSw2LjIzbDYuNC02LjE0YzAuNzItMC42OSwxLjg2LTAuNjgsMi41NiwwLjAybDYuNCw2LjIzbDYuNDQtNi40NCBjMC41NS0wLjU2LDEuNC0wLjY4LDIuMDgtMC4zNmwwLDBWMzkuMkg4NS4yN2MwLjEyLTAuNTksMC4xNy0xLjE5LDAuMTctMS43OWMtMC4wMS0wLjYzLTAuMDktMS4yNy0wLjIzLTEuODloMzUuODQgYzEuMDIsMCwxLjg0LDAuODIsMS44NCwxLjg0djU2LjQyaC0wLjAxYzAsMC41MS0wLjIxLDEuMDItMC42NCwxLjM5QzEyMS40OCw5NS44MywxMjAuMzIsOTUuNzUsMTE5LjY2LDk0Ljk4TDExOS42Niw5NC45OCBMMTE5LjY2LDk0Ljk4eiBNNzAuMTMsNzguODFjLTAuODIsMC0xLjQ5LTAuNjctMS40OS0xLjQ5YzAtMC44MiwwLjY3LTEuNDksMS40OS0xLjQ5aDEzLjM1YzAuODIsMCwxLjQ5LDAuNjcsMS40OSwxLjQ5IGMwLDAuODItMC42NywxLjQ5LTEuNDksMS40OUg3MC4xM0w3MC4xMyw3OC44MXogTTcwLjEzLDYwLjc3Yy0wLjgyLDAtMS40OS0wLjY3LTEuNDktMS40OWMwLTAuODIsMC42Ny0xLjQ5LDEuNDktMS40OWgzOS41OSBjMC44MiwwLDEuNDksMC42NywxLjQ5LDEuNDljMCwwLjgyLTAuNjcsMS40OS0xLjQ5LDEuNDlINzAuMTNMNzAuMTMsNjAuNzd6IE03MC4xMyw2OS44NGMtMC44MiwwLTEuNDktMC42Ny0xLjQ5LTEuNDkgYzAtMC44MiwwLjY3LTEuNDksMS40OS0xLjQ5aDMzLjg1YzAuODIsMCwxLjQ5LDAuNjcsMS40OSwxLjQ5YzAsMC44Mi0wLjY3LDEuNDktMS40OSwxLjQ5SDcwLjEzTDcwLjEzLDY5Ljg0eiBNNjIuNywxNy4xMSBMNjIuNywxNy4xMWMxLjk5LDEuOTksMi4wMyw1LjIsMC4wOSw3LjE0bC0xLjA1LDEuMDVsOC40Myw4LjI4TDQ4Ljg2LDU0LjEybC04LjIxLTguNUw4LjY2LDc3LjYxYy0xLjk0LDEuOTQtNS4xNSwxLjktNy4xNC0wLjA5IGwwLDBjLTEuOTktMS45OS0yLjAzLTUuMi0wLjA5LTcuMTRsMzIuMTEtMzIuMTFsLTYuNDMtNi42OGwyMC4xNC0yMC41NGw3LjIxLDcuMDdsMS4xMS0xLjExQzU3LjUsMTUuMDksNjAuNzEsMTUuMTMsNjIuNywxNy4xMSBMNjIuNywxNy4xMUw2Mi43LDE3LjExeiBNNDYuMzgsMS4yMUw0Ni4zOCwxLjIxYzEuNTgsMS41OCwxLjYxLDQuMTQsMC4wNyw1LjY4bC0yMy41LDIzLjVjLTEuNTQsMS41NC00LjEsMS41MS01LjY4LTAuMDdsMCwwIGMtMS41OC0xLjU4LTEuNjEtNC4xNC0wLjA3LTUuNjhsMjMuNS0yMy41QzQyLjI0LTAuNDEsNDQuOC0wLjM3LDQ2LjM4LDEuMjFMNDYuMzgsMS4yMUw0Ni4zOCwxLjIxeiBNNzkuNzgsMzQuNjFMNzkuNzgsMzQuNjEgYzEuNTgsMS41OCwxLjYxLDQuMTQsMC4wNyw1LjY4bC0yMy41LDIzLjVjLTEuNTQsMS41NC00LjEsMS41MS01LjY4LTAuMDdsMCwwYy0xLjU4LTEuNTgtMS42MS00LjE0LTAuMDctNS42OGwyMy41LTIzLjUgQzc1LjY1LDMzLDc4LjIsMzMuMDMsNzkuNzgsMzQuNjFMNzkuNzgsMzQuNjFMNzkuNzgsMzQuNjF6Ii8+PC9nPjwvc3ZnPgo=;" parent="KHMOXzPkpy2jXdSMmZce-50" vertex="1"><mxGeometry x="70.10999999999999" y="29.14" width="22.26" height="18.15" as="geometry"/></mxCell><mxCell id="0dP18QePjByt_-lthVMO-1" value="" style="shape=image;aspect=fixed;image=data:image/svg+xml,PD94bWwgdmVyc2lvbj0iMS4wIiBlbmNvZGluZz0idXRmLTgiPz48c3ZnIHZlcnNpb249IjEuMSIgaWQ9IkxheWVyXzEiIHhtbG5zPSJodHRwOi8vd3d3LnczLm9yZy8yMDAwL3N2ZyIgeG1sbnM6eGxpbms9Imh0dHA6Ly93d3cudzMub3JnLzE5OTkveGxpbmsiIGZpbGw9IiNFQTZCNjYiIHg9IjBweCIgeT0iMHB4IiB2aWV3Qm94PSIwIDAgMTIyLjg4IDEwMC4zOSIgc3R5bGU9ImVuYWJsZS1iYWNrZ3JvdW5kOm5ldyAwIDAgMTIyLjg4IDEwMC4zOSIgeG1sOnNwYWNlPSJwcmVzZXJ2ZSI+PGc+PHBhdGggZD0iTTExOS42Niw5NC45OGwtMS4zMy0xLjUzTDExMiw5OS43OGwtMC4wMS0wLjAxYy0wLjcxLDAuNzEtMS44NiwwLjcyLTIuNTcsMC4wMmwtNi40NS02LjI3bC02LjMyLDYuMDcgYy0wLjY5LDAuNzEtMS44MywwLjc1LTIuNTYsMC4wN2wtNi43LTYuMTlsLTYuMDgsNi4yNmMtMC4wNCwwLjA0LTAuMDcsMC4wOC0wLjExLDAuMTJjLTAuNzIsMC43Mi0xLjg4LDAuNzItMi42LDBsLTYuMzgtNi4zOCBsLTYuNTgsNi4yN2wwLDBjLTAuNzIsMC42OC0xLjg2LDAuNjctMi41Ni0wLjA0bC02LjI2LTYuMzJsLTEuMywxLjVjLTAuMzMsMC40NS0wLjg3LDAuNzQtMS40OCwwLjc0Yy0xLjAyLDAtMS44NC0wLjgzLTEuODQtMS44NCBWNjkuMjZjMC40MiwwLjA3LDAuODUsMC4xMSwxLjI4LDAuMTFjMC44MSwwLjAxLDEuNjItMC4wOSwyLjQxLTAuMzF2MjBjMC42NS0wLjM0LDEuNDYtMC4yNywyLjA1LDAuMjQgYzAuMDQsMC4wMywwLjA3LDAuMDYsMC4xLDAuMWwwLDBsNi4zOCw2LjQ1bDYuNTctNi4yNmMwLjczLTAuNjksMS44Ni0wLjY3LDIuNTYsMC4wM2wwLjAxLTAuMDFsNi4zMyw2LjMzbDYuMTMtNi4zMSBjMC43LTAuNzEsMS44My0wLjc0LDIuNTYtMC4wN2wwLDBsNi43NSw2LjIzbDYuNC02LjE0YzAuNzItMC42OSwxLjg2LTAuNjgsMi41NiwwLjAybDYuNCw2LjIzbDYuNDQtNi40NCBjMC41NS0wLjU2LDEuNC0wLjY4LDIuMDgtMC4zNmwwLDBWMzkuMkg4NS4yN2MwLjEyLTAuNTksMC4xNy0xLjE5LDAuMTctMS43OWMtMC4wMS0wLjYzLTAuMDktMS4yNy0wLjIzLTEuODloMzUuODQgYzEuMDIsMCwxLjg0LDAuODIsMS44NCwxLjg0djU2LjQyaC0wLjAxYzAsMC41MS0wLjIxLDEuMDItMC42NCwxLjM5QzEyMS40OCw5NS44MywxMjAuMzIsOTUuNzUsMTE5LjY2LDk0Ljk4TDExOS42Niw5NC45OCBMMTE5LjY2LDk0Ljk4eiBNNzAuMTMsNzguODFjLTAuODIsMC0xLjQ5LTAuNjctMS40OS0xLjQ5YzAtMC44MiwwLjY3LTEuNDksMS40OS0xLjQ5aDEzLjM1YzAuODIsMCwxLjQ5LDAuNjcsMS40OSwxLjQ5IGMwLDAuODItMC42NywxLjQ5LTEuNDksMS40OUg3MC4xM0w3MC4xMyw3OC44MXogTTcwLjEzLDYwLjc3Yy0wLjgyLDAtMS40OS0wLjY3LTEuNDktMS40OWMwLTAuODIsMC42Ny0xLjQ5LDEuNDktMS40OWgzOS41OSBjMC44MiwwLDEuNDksMC42NywxLjQ5LDEuNDljMCwwLjgyLTAuNjcsMS40OS0xLjQ5LDEuNDlINzAuMTNMNzAuMTMsNjAuNzd6IE03MC4xMyw2OS44NGMtMC44MiwwLTEuNDktMC42Ny0xLjQ5LTEuNDkgYzAtMC44MiwwLjY3LTEuNDksMS40OS0xLjQ5aDMzLjg1YzAuODIsMCwxLjQ5LDAuNjcsMS40OSwxLjQ5YzAsMC44Mi0wLjY3LDEuNDktMS40OSwxLjQ5SDcwLjEzTDcwLjEzLDY5Ljg0eiBNNjIuNywxNy4xMSBMNjIuNywxNy4xMWMxLjk5LDEuOTksMi4wMyw1LjIsMC4wOSw3LjE0bC0xLjA1LDEuMDVsOC40Myw4LjI4TDQ4Ljg2LDU0LjEybC04LjIxLTguNUw4LjY2LDc3LjYxYy0xLjk0LDEuOTQtNS4xNSwxLjktNy4xNC0wLjA5IGwwLDBjLTEuOTktMS45OS0yLjAzLTUuMi0wLjA5LTcuMTRsMzIuMTEtMzIuMTFsLTYuNDMtNi42OGwyMC4xNC0yMC41NGw3LjIxLDcuMDdsMS4xMS0xLjExQzU3LjUsMTUuMDksNjAuNzEsMTUuMTMsNjIuNywxNy4xMSBMNjIuNywxNy4xMUw2Mi43LDE3LjExeiBNNDYuMzgsMS4yMUw0Ni4zOCwxLjIxYzEuNTgsMS41OCwxLjYxLDQuMTQsMC4wNyw1LjY4bC0yMy41LDIzLjVjLTEuNTQsMS41NC00LjEsMS41MS01LjY4LTAuMDdsMCwwIGMtMS41OC0xLjU4LTEuNjEtNC4xNC0wLjA3LTUuNjhsMjMuNS0yMy41QzQyLjI0LTAuNDEsNDQuOC0wLjM3LDQ2LjM4LDEuMjFMNDYuMzgsMS4yMUw0Ni4zOCwxLjIxeiBNNzkuNzgsMzQuNjFMNzkuNzgsMzQuNjEgYzEuNTgsMS41OCwxLjYxLDQuMTQsMC4wNyw1LjY4bC0yMy41LDIzLjVjLTEuNTQsMS41NC00LjEsMS41MS01LjY4LTAuMDdsMCwwYy0xLjU4LTEuNTgtMS42MS00LjE0LTAuMDctNS42OGwyMy41LTIzLjUgQzc1LjY1LDMzLDc4LjIsMzMuMDMsNzkuNzgsMzQuNjFMNzkuNzgsMzQuNjFMNzkuNzgsMzQuNjF6Ii8+PC9nPjwvc3ZnPgo=;" parent="KHMOXzPkpy2jXdSMmZce-50" vertex="1"><mxGeometry x="16.240000000000002" y="58" width="24.53" height="20" as="geometry"/></mxCell><mxCell id="0dP18QePjByt_-lthVMO-2" value="" style="shape=image;aspect=fixed;image=data:image/svg+xml,PD94bWwgdmVyc2lvbj0iMS4wIiBlbmNvZGluZz0idXRmLTgiPz48c3ZnIHZlcnNpb249IjEuMSIgaWQ9IkxheWVyXzEiIHhtbG5zPSJodHRwOi8vd3d3LnczLm9yZy8yMDAwL3N2ZyIgeG1sbnM6eGxpbms9Imh0dHA6Ly93d3cudzMub3JnLzE5OTkveGxpbmsiIGZpbGw9IiM5N0QwNzciIHg9IjBweCIgeT0iMHB4IiB2aWV3Qm94PSIwIDAgMTIyLjg4IDEwMC4zOSIgc3R5bGU9ImVuYWJsZS1iYWNrZ3JvdW5kOm5ldyAwIDAgMTIyLjg4IDEwMC4zOSIgeG1sOnNwYWNlPSJwcmVzZXJ2ZSI+PGc+PHBhdGggZD0iTTExOS42Niw5NC45OGwtMS4zMy0xLjUzTDExMiw5OS43OGwtMC4wMS0wLjAxYy0wLjcxLDAuNzEtMS44NiwwLjcyLTIuNTcsMC4wMmwtNi40NS02LjI3bC02LjMyLDYuMDcgYy0wLjY5LDAuNzEtMS44MywwLjc1LTIuNTYsMC4wN2wtNi43LTYuMTlsLTYuMDgsNi4yNmMtMC4wNCwwLjA0LTAuMDcsMC4wOC0wLjExLDAuMTJjLTAuNzIsMC43Mi0xLjg4LDAuNzItMi42LDBsLTYuMzgtNi4zOCBsLTYuNTgsNi4yN2wwLDBjLTAuNzIsMC42OC0xLjg2LDAuNjctMi41Ni0wLjA0bC02LjI2LTYuMzJsLTEuMywxLjVjLTAuMzMsMC40NS0wLjg3LDAuNzQtMS40OCwwLjc0Yy0xLjAyLDAtMS44NC0wLjgzLTEuODQtMS44NCBWNjkuMjZjMC40MiwwLjA3LDAuODUsMC4xMSwxLjI4LDAuMTFjMC44MSwwLjAxLDEuNjItMC4wOSwyLjQxLTAuMzF2MjBjMC42NS0wLjM0LDEuNDYtMC4yNywyLjA1LDAuMjQgYzAuMDQsMC4wMywwLjA3LDAuMDYsMC4xLDAuMWwwLDBsNi4zOCw2LjQ1bDYuNTctNi4yNmMwLjczLTAuNjksMS44Ni0wLjY3LDIuNTYsMC4wM2wwLjAxLTAuMDFsNi4zMyw2LjMzbDYuMTMtNi4zMSBjMC43LTAuNzEsMS44My0wLjc0LDIuNTYtMC4wN2wwLDBsNi43NSw2LjIzbDYuNC02LjE0YzAuNzItMC42OSwxLjg2LTAuNjgsMi41NiwwLjAybDYuNCw2LjIzbDYuNDQtNi40NCBjMC41NS0wLjU2LDEuNC0wLjY4LDIuMDgtMC4zNmwwLDBWMzkuMkg4NS4yN2MwLjEyLTAuNTksMC4xNy0xLjE5LDAuMTctMS43OWMtMC4wMS0wLjYzLTAuMDktMS4yNy0wLjIzLTEuODloMzUuODQgYzEuMDIsMCwxLjg0LDAuODIsMS44NCwxLjg0djU2LjQyaC0wLjAxYzAsMC41MS0wLjIxLDEuMDItMC42NCwxLjM5QzEyMS40OCw5NS44MywxMjAuMzIsOTUuNzUsMTE5LjY2LDk0Ljk4TDExOS42Niw5NC45OCBMMTE5LjY2LDk0Ljk4eiBNNzAuMTMsNzguODFjLTAuODIsMC0xLjQ5LTAuNjctMS40OS0xLjQ5YzAtMC44MiwwLjY3LTEuNDksMS40OS0xLjQ5aDEzLjM1YzAuODIsMCwxLjQ5LDAuNjcsMS40OSwxLjQ5IGMwLDAuODItMC42NywxLjQ5LTEuNDksMS40OUg3MC4xM0w3MC4xMyw3OC44MXogTTcwLjEzLDYwLjc3Yy0wLjgyLDAtMS40OS0wLjY3LTEuNDktMS40OWMwLTAuODIsMC42Ny0xLjQ5LDEuNDktMS40OWgzOS41OSBjMC44MiwwLDEuNDksMC42NywxLjQ5LDEuNDljMCwwLjgyLTAuNjcsMS40OS0xLjQ5LDEuNDlINzAuMTNMNzAuMTMsNjAuNzd6IE03MC4xMyw2OS44NGMtMC44MiwwLTEuNDktMC42Ny0xLjQ5LTEuNDkgYzAtMC44MiwwLjY3LTEuNDksMS40OS0xLjQ5aDMzLjg1YzAuODIsMCwxLjQ5LDAuNjcsMS40OSwxLjQ5YzAsMC44Mi0wLjY3LDEuNDktMS40OSwxLjQ5SDcwLjEzTDcwLjEzLDY5Ljg0eiBNNjIuNywxNy4xMSBMNjIuNywxNy4xMWMxLjk5LDEuOTksMi4wMyw1LjIsMC4wOSw3LjE0bC0xLjA1LDEuMDVsOC40Myw4LjI4TDQ4Ljg2LDU0LjEybC04LjIxLTguNUw4LjY2LDc3LjYxYy0xLjk0LDEuOTQtNS4xNSwxLjktNy4xNC0wLjA5IGwwLDBjLTEuOTktMS45OS0yLjAzLTUuMi0wLjA5LTcuMTRsMzIuMTEtMzIuMTFsLTYuNDMtNi42OGwyMC4xNC0yMC41NGw3LjIxLDcuMDdsMS4xMS0xLjExQzU3LjUsMTUuMDksNjAuNzEsMTUuMTMsNjIuNywxNy4xMSBMNjIuNywxNy4xMUw2Mi43LDE3LjExeiBNNDYuMzgsMS4yMUw0Ni4zOCwxLjIxYzEuNTgsMS41OCwxLjYxLDQuMTQsMC4wNyw1LjY4bC0yMy41LDIzLjVjLTEuNTQsMS41NC00LjEsMS41MS01LjY4LTAuMDdsMCwwIGMtMS41OC0xLjU4LTEuNjEtNC4xNC0wLjA3LTUuNjhsMjMuNS0yMy41QzQyLjI0LTAuNDEsNDQuOC0wLjM3LDQ2LjM4LDEuMjFMNDYuMzgsMS4yMUw0Ni4zOCwxLjIxeiBNNzkuNzgsMzQuNjFMNzkuNzgsMzQuNjEgYzEuNTgsMS41OCwxLjYxLDQuMTQsMC4wNyw1LjY4bC0yMy41LDIzLjVjLTEuNTQsMS41NC00LjEsMS41MS01LjY4LTAuMDdsMCwwYy0xLjU4LTEuNTgtMS42MS00LjE0LTAuMDctNS42OGwyMy41LTIzLjUgQzc1LjY1LDMzLDc4LjIsMzMuMDMsNzkuNzgsMzQuNjFMNzkuNzgsMzQuNjFMNzkuNzgsMzQuNjF6Ii8+PC9nPjwvc3ZnPgo=;" parent="KHMOXzPkpy2jXdSMmZce-50" vertex="1"><mxGeometry x="67.84" y="58" width="24.53" height="20" as="geometry"/></mxCell><mxCell id="0_7VwTbxrkbWiCT924aY-0" value="" style="group" parent="B29hNIKYiQ5LC-AWj-gK-1" vertex="1" connectable="0"><mxGeometry x="406.78" y="40" width="70" height="70" as="geometry"/></mxCell><mxCell id="0_7VwTbxrkbWiCT924aY-1" value="" style="rounded=1;whiteSpace=wrap;html=1;labelBackgroundColor=none;fillColor=#ffe6cc;strokeColor=#d79b00;" parent="0_7VwTbxrkbWiCT924aY-0" vertex="1"><mxGeometry width="70" height="70" as="geometry"/></mxCell><mxCell id="0_7VwTbxrkbWiCT924aY-2" value="School" style="shape=image;html=1;verticalLabelPosition=top;labelBackgroundColor=none;verticalAlign=bottom;imageAspect=1;aspect=fixed;image=https://img.icons8.com/dusk/64/000000/school.png;labelPosition=center;align=center;" parent="0_7VwTbxrkbWiCT924aY-0" vertex="1"><mxGeometry x="26" y="18.75" width="21.25" height="21.25" as="geometry"/></mxCell><mxCell id="0_7VwTbxrkbWiCT924aY-3" value="" style="shape=image;html=1;verticalLabelPosition=bottom;labelBackgroundColor=none;verticalAlign=top;imageAspect=1;aspect=fixed;image=https://img.icons8.com/color/48/000000/solar-panel.png;spacing=0;" parent="0_7VwTbxrkbWiCT924aY-0" vertex="1"><mxGeometry x="10" y="40" width="18.5" height="18.5" as="geometry"/></mxCell><mxCell id="0_7VwTbxrkbWiCT924aY-4" value="" style="shape=image;html=1;verticalLabelPosition=bottom;labelBackgroundColor=none;verticalAlign=top;imageAspect=1;aspect=fixed;image=https://img.icons8.com/cotton/64/000000/car-battery--v1.png;spacing=0;" parent="0_7VwTbxrkbWiCT924aY-0" vertex="1"><mxGeometry x="40" y="41.75" width="16.75" height="16.75" as="geometry"/></mxCell></root></mxGraphModel></diagram></mxfile>